<?xml version="1.0" encoding="UTF-8" standalone="no"?>
<!-- Created with Inkscape (http://www.inkscape.org/) -->

<svg
   width="100"
   height="100"
   version="1.1"
   viewBox="0 0 100 100"
   xml:space="preserve"
   id="svg22192"
   sodipodi:docname="default_icon.svg"
   inkscape:version="1.3.2 (091e20e, 2023-11-25, custom)"
   xmlns:inkscape="http://www.inkscape.org/namespaces/inkscape"
   xmlns:sodipodi="http://sodipodi.sourceforge.net/DTD/sodipodi-0.dtd"
   xmlns="http://www.w3.org/2000/svg"
   xmlns:svg="http://www.w3.org/2000/svg"><sodipodi:namedview
     id="namedview1"
     pagecolor="#ffffff"
     bordercolor="#111111"
     borderopacity="1"
     inkscape:showpageshadow="0"
     inkscape:pageopacity="0"
     inkscape:pagecheckerboard="1"
     inkscape:deskcolor="#d1d1d1"
     inkscape:zoom="3.5313505"
     inkscape:cx="34.689278"
     inkscape:cy="51.11359"
     inkscape:current-layer="svg22192" /><animateTransform
     attributeName="transform"
     attributeType="XML"
     dur="10s"
     from="0,0,0"
     repeatCount="indefinite"
     to="359,0,0"
     type="rotate" /><defs
     id="defs22188"><linearGradient
       id="linearGradient19700"
       x1="18.733"
       x2="77.041634"
       y1="84.084"
       y2="12.977389"
       gradientTransform="translate(-.051407 -.22692)"
       gradientUnits="userSpaceOnUse"><stop
         style="stop-color:#40e0d0"
         offset="0"
         id="stop22183" /><stop
         style="stop-color:#ffffe0"
         offset="1"
         id="stop22185" /></linearGradient></defs><circle
     id="path19189"
     cx="50"
     cy="50"
     r="46"
     style="fill-rule:evenodd;fill:#4abdac;paint-order:stroke fill markers;stroke-dashoffset:20.001;stroke-linecap:round;stroke-linejoin:round;stroke-width:0.5;fill-opacity:1" /><g
     id="g2"
     transform="translate(0.28467766,4.747368)"><g
       transform="matrix(0.0068253,0,0,-0.0068253,22.064875,62.437798)"
       fill="#000000"
       stroke="none"
       id="g20"
       style="stroke-width:19.5352"><g
         id="g566"
         transform="translate(-425.30959,425.30959)"><path
           style="fill:#000000;stroke-width:19.5352"
           d="m 9277.5756,3941.9926 c 4.433,133.4137 169.861,326.234 341.371,397.8952 80.848,33.7804 146.996,72.8158 146.996,86.7453 0,67.195 -351.196,640.633 -587.702,959.6098 -654.978,883.3685 -1599.323,1612.5723 -2574.966,1988.3349 -714.64,275.2391 -1204.381,356.5621 -2131.155,353.8845 -974.369,-2.8148 -1470.973,-90.8588 -2219.722,-393.5374 C 1111.2476,6873.6196 73.52656,5976.5957 -566.48744,4898.2327 c -290.279,-489.0917 -289.014,-482.8049 -112.093,-556.7271 176.412,-73.7094 341.856,-266.5144 342.819,-399.513 1.655,-228.7071 75.375,-201.1105 191.281,71.6049 270.421,636.2764 846.998,1379.091 1436.66404,1850.8829 1000.6,800.5785 2047.023,1131.7079 3416.784,1081.2044 853.461,-31.4675 1351.494,-154.0432 2029.22,-499.4305 987.835,-503.4283 1866.547,-1412.8365 2322.166,-2403.2886 150.867,-327.9641 208.785,-354.8862 217.222,-100.9731 z"
           id="path566" /><path
           style="fill:#000000;stroke-width:19.5352"
           d="m 10633.362,300.88128 c 104.187,50.4361 250.273,168.5211 324.635,262.4103 250.874,316.7544 270.89,446.80312 255.546,1660.28392 -15.654,1237.8126 -6.036,1209.1609 -382.518,1614.1519 -191.095,205.5659 -411.378,253.0099 -802.987,253.3429 -473.7654,0.4028 -437.3984,160.2795 -439.9534,-1934.12 -1.616,-1324.99762 11.818,-1840.99972 49.103,-1885.92462 86.053,-103.6874 762.1704,-83.4241 996.1744,29.8556 z"
           id="path565" /><path
           style="fill:#000000;stroke-width:19.5352"
           d="m -895.78102,831.38971 c 62.111,23.8344 250.53758,-363.27683 250.53758,1299.96769 0,2145.2886 10.54678,1704.9613 -481.17916,1704.5271 -518.919,-0.4582 -616.4332,-9.1692 -871.1692,-419.4149 -148.192,-238.6577 -73.2918,-761.995 -65.5178,-1358.8032 6.573,-504.6601 152.2872,-849.1676 351.5112,-1278.30558 78.702,-151.2464 -88.3296,-116.85155 79.7704,-190.38595 134.37,-58.7807 608.443,193.44864 736.04698,242.41484 z"
           id="path564" /><path
           style="fill:#000000;stroke-width:19.5352"
           d="m 5554.8506,2828.1137 c -180.442,180.4423 -207.971,867.8292 -44.733,1116.9624 88.066,134.4052 325.948,139.7663 443.392,9.9927 91.826,-101.4666 141.274,-614.4042 87.079,-903.2891 -57.821,-308.2132 -292.931,-416.4732 -485.738,-223.666 z"
           id="path563" /><path
           style="fill:#000000;stroke-width:19.5352"
           d="m 2995.7886,2828.4943 c -124.143,124.1431 -178.382,414.9412 -142.407,763.5073 33.829,327.7719 122.665,455.1995 317.339,455.1995 243.174,0 308.806,-143.3511 308.806,-674.4762 0,-422.8597 -3.693,-439.0436 -123.776,-542.4223 -155.172,-133.5851 -227.82,-133.9504 -359.962,-1.8083 z"
           id="path562" /><path
           style="fill:#000000;stroke-width:19.5352"
           d="m 3821.4056,-408.51235 c -952.038,134.13689 -1875.371,588.03913 -2376.157,1168.09773 -193.694,224.3555 -212.478,235.4041 -298.174,175.3807 -118.535,-83.0253 -224.81604,-81.2279 -311.30804,5.2644 -113.987,113.98672 -82.553,189.22782 203.51704,487.13922 304.7,317.3137 435.755,376.9479 567.125,258.0597 113.566,-102.7757 109.079,-163.2514 -23.835,-321.2103 -60.658,-72.0885 -110.288,-151.0265 -110.288,-175.4188 0,-72.4256 465.611,-476.02602 744.871,-645.66682 701.204,-425.95875 1728.695,-617.432889 2749.288,-512.332469 1011.986,104.213859 1659.541,366.298169 2226.486,901.122069 l 343.115,323.67702 -142.334,162.1101 c -160.484,182.7808 -158.909,177.9859 -96.668,294.2856 87.822,164.0972 251.533,104.8168 576.235,-208.6564 319.177,-308.1395 356.872,-394.9168 223.842,-515.30742 -107.736,-97.4993 -180.158,-92.014 -302.489,22.91052 -56.157,52.756 -102.103,73.7395 -102.103,46.6295 0,-85.73922 -492.664,-585.44842 -747.629,-758.31932 -474.373,-321.634689 -942.604,-520.3576 -1524.304,-646.9326 -375.255,-81.65341 -1222.63,-113.88735 -1599.19,-60.83243 z"
           id="path561" /><path
           d="m -920.21312,4167.1353 c 310.459,2.2368 283.0648,-104.4165 285.3011,-1937.0142 1.6159,-1324.99645 -11.9352,-1840.86694 -49.2194,-1885.79184 -86.0531,-103.6873 -762.11748,-83.519 -996.12198,29.7606 -104.187,50.4361 -250.429,168.5192 -324.791,262.4083 -250.874,316.75409 -270.884,446.81844 -255.54,1660.29804 15.654,1237.8114 6.113,1209.2357 382.595,1614.2262 191.095,205.5657 411.355,252.9183 802.9639,253.2513 59.2205,0.05 110.46105,2.542 154.81238,2.8616 z"
           style="fill:#000000;fill-rule:evenodd;stroke-width:146.514px"
           id="path552" /></g></g><path
       style="opacity:1;fill:#000000;fill-rule:evenodd;stroke:none;stroke-width:1px;stroke-linecap:butt;stroke-linejoin:miter;stroke-opacity:1"
       d="m 38.190857,13.805042 c 15.330789,-9.5419498 42.790677,-1.767704 30.987882,18.656313 -0.0767,-4.802212 -1.808934,-5.805029 -3.276539,-7.415151 0.869782,2.367277 0.643738,4.734555 -0.182033,7.101835 -3.171726,-5.430452 -9.333189,-19.286965 -27.52931,-18.342997 z"
       id="path11" /></g></svg>
