<?xml version="1.0" encoding="UTF-8" standalone="no"?>
<svg
   xml:space="preserve"
   width="100"
   height="100"
   version="1.1"
   id="playlistBooster-btn-playBackward"
   sodipodi:docname="playlistBooster-btn-playBackward.svg"
   inkscape:version="1.3.2 (091e20e, 2023-11-25, custom)"
   xmlns:inkscape="http://www.inkscape.org/namespaces/inkscape"
   xmlns:sodipodi="http://sodipodi.sourceforge.net/DTD/sodipodi-0.dtd"
   xmlns="http://www.w3.org/2000/svg"
   xmlns:svg="http://www.w3.org/2000/svg"><sodipodi:namedview
   id="namedview1"
   pagecolor="#ffffff"
   bordercolor="#111111"
   borderopacity="1"
   inkscape:showpageshadow="0"
   inkscape:pageopacity="0"
   inkscape:pagecheckerboard="1"
   inkscape:deskcolor="#d1d1d1"
   inkscape:zoom="3.5313505"
   inkscape:cx="90.758479"
   inkscape:cy="49.697701"
   inkscape:current-layer="playlistBooster-btn-playBackward" /><defs
   id="defs1">
  
 
  
 </defs>
 
<g
   id="g3"
   transform="translate(-0.56635075,2.3277638e-5)"><path
     id="path1"
     style="stroke-width:0.999992"
     d="m 72.653457,7.4761826 c -2.178419,0.031518 -4.905231,0.8409025 -7.648291,2.4291581 L 3.9187844,45.27551 c -2.58833,1.49861 -2.5899979,7.475373 0,8.971284 L 66.363733,90.318268 c 4.142778,2.393167 8.718833,3.39003 10.70253,0.07454 -0.04807,-0.02733 -0.09774,-0.04684 -0.145683,-0.07454 L 14.473934,54.246794 c -2.589998,-1.495911 -2.58833,-7.472674 0,-8.971284 L 75.56201,9.9053407 C 75.969882,9.6691783 76.376279,9.4515012 76.781671,9.2497729 76.085859,8.045143 74.592892,7.4481216 72.653457,7.4761826 Z" /><g
     id="g2"
     transform="matrix(-33.346212,0,0,33.346212,988.96321,-1464.3854)"
     fill="#000000"
     fill-opacity="1"
     style="fill:#000000;stroke-width:0.0299882">
  
 <path
   d="m 26.700343,44.258619 c -8.44e-4,0.0014 -0.01643,2.294079 -0.01643,2.294079 0.03078,0.182834 0.198049,0.156099 0.346384,0.07041 l 1.872643,-1.081721 c 0.07767,-0.04486 0.07762,-0.224128 0,-0.269069 l -1.8319,-1.060685 c -0.188023,-0.108867 -0.373436,-0.09572 -0.365966,0.03915 1.66e-4,0.003 -0.0047,0.0052 -0.0047,0.0078 z"
   id="path2"
   fill="#000000"
   fill-opacity="1"
   style="fill:#000000;stroke-width:0.0299882" /></g></g></svg>
