<?xml version="1.0" encoding="UTF-8" standalone="no"?>
<svg
   xml:space="preserve"
   width="100"
   height="100"
   version="1.1"
   viewBox="0 0 100 100"
   id="playlistBooster-btn-stop"
   xmlns="http://www.w3.org/2000/svg"
   xmlns:svg="http://www.w3.org/2000/svg"><defs
   id="defs1" />
 
<g
   id="gStop"
   transform="translate(8.844171,-0.3391082)"><path
     id="stopLeft"
     d="m 18.543527,1.4719834 h 11.551607 c 2.130161,0 3.845049,1.5702214 3.845049,3.5206692 V 95.685579 c 0,1.950447 -1.714888,3.520654 -3.845049,3.520654 H 18.543527 c -2.130163,0 -3.845064,-1.570207 -3.845064,-3.520654 V 4.9926526 c 0,-1.9504478 1.714901,-3.5206692 3.845064,-3.5206692 z"
     fill="#000000"
     fill-opacity="1"
     style="stroke-width:1" /><path
     id="stopRight"
     d="m 52.21654,1.4719834 h 11.551606 c 2.130163,0 3.845049,1.5702214 3.845049,3.5206692 V 95.685579 c 0,1.950447 -1.714886,3.520654 -3.845049,3.520654 H 52.21654 c -2.130162,0 -3.845049,-1.570207 -3.845049,-3.520654 V 4.9926526 c 0,-1.9504478 1.714887,-3.5206692 3.845049,-3.5206692 z"
     fill="#000000"
     fill-opacity="1"
     style="stroke-width:1" /></g></svg>
