<?xml version="1.0" encoding="UTF-8" standalone="no"?>
<svg
   xml:space="preserve"
   width="120px"
   height="100px"
   version="1.1"
   viewBox="0 0 120 100"
   id="playlistBooster-btn-speaker"
   sodipodi:docname="playlistBooster-btn-speaker.svg"
   inkscape:version="1.3.2 (091e20e, 2023-11-25, custom)"
   xmlns:inkscape="http://www.inkscape.org/namespaces/inkscape"
   xmlns:sodipodi="http://sodipodi.sourceforge.net/DTD/sodipodi-0.dtd"
   xmlns="http://www.w3.org/2000/svg"
   xmlns:svg="http://www.w3.org/2000/svg"><sodipodi:namedview
   id="namedview1"
   pagecolor="#ffffff"
   bordercolor="#111111"
   borderopacity="1"
   inkscape:showpageshadow="0"
   inkscape:pageopacity="0"
   inkscape:pagecheckerboard="1"
   inkscape:deskcolor="#d1d1d1"
   inkscape:zoom="3.5313505"
   inkscape:cx="84.670157"
   inkscape:cy="61.591167"
   inkscape:current-layer="playlistBooster-btn-speaker" /><defs
   id="defs1" />
 
<g
   id="g6"
   transform="matrix(1.2106886,0,0,1.2106886,-1.581859,-10.545647)"><path
     style="color:#000000;fill:#000000;stroke-linejoin:round;-inkscape-stroke:none"
     d="M 53.262668,12.941385 C 52.031025,12.378278 50.58412,12.585088 49.559543,13.470682 L 26.782199,33.169901 H 5.5946993 c -1.912004,-6.4e-4 -3.462452,1.548933 -3.4628906,3.460937 v 26.435547 c 4.38e-4,1.912004 1.5508862,3.461578 3.4628906,3.460938 H 26.442355 l 23.117188,19.996093 c 2.24197,1.936579 5.722436,0.345374 5.724609,-2.617187 V 16.08787 c -5.53e-4,-1.35389 -0.790334,-2.583202 -2.021484,-3.146485 z"
     id="path1"
     sodipodi:nodetypes="cccccccccccc" /><g
     id="g5"
     style="stroke-width:9;stroke-dasharray:none"><path
       style="fill:none;stroke:#111111;stroke-width:9;stroke-linecap:round;stroke-dasharray:none"
       d="m 82.575533,16.408471 a 53.720879,53.720879 0 0 1 0,67.289553"
       id="path4" /><path
       style="fill:none;stroke:#111111;stroke-width:9;stroke-linecap:round;stroke-dasharray:none"
       d="m 73.575905,25.408103 a 41.536761,41.536761 0 0 1 0,49.29029"
       id="path3" /><path
       style="fill:none;stroke:#111111;stroke-width:9;stroke-linecap:round;stroke-dasharray:none"
       d="m 63.745537,35.23847 a 26.998895,26.998895 0 0 1 0,29.629557"
       id="path2" /></g></g></svg>
