<?xml version="1.0" encoding="UTF-8" standalone="no"?>
<svg
   xml:space="preserve"
   width="100"
   height="100"
   version="1.1"
   viewBox="0 0 100 100"
   id="playlistBooster-btn-stop"
   sodipodi:docname="playlistBooster-btn-stop.svg"
   inkscape:version="1.3.2 (091e20e, 2023-11-25, custom)"
   xmlns:inkscape="http://www.inkscape.org/namespaces/inkscape"
   xmlns:sodipodi="http://sodipodi.sourceforge.net/DTD/sodipodi-0.dtd"
   xmlns="http://www.w3.org/2000/svg"
   xmlns:svg="http://www.w3.org/2000/svg"><sodipodi:namedview
   id="namedview1"
   pagecolor="#ffffff"
   bordercolor="#111111"
   borderopacity="1"
   inkscape:showpageshadow="0"
   inkscape:pageopacity="0"
   inkscape:pagecheckerboard="1"
   inkscape:deskcolor="#d1d1d1"
   showguides="true"
   inkscape:zoom="2.4970419"
   inkscape:cx="26.431275"
   inkscape:cy="89.105434"
   inkscape:current-layer="playlistBooster-btn-stop"><sodipodi:guide
     position="42.784354,98.867125"
     orientation="1,0"
     id="guide2"
     inkscape:locked="false" /><sodipodi:guide
     position="57.215662,64.15759"
     orientation="1,0"
     id="guide3"
     inkscape:locked="false" /><sodipodi:guide
     position="12.214453,60.953799"
     orientation="1,0"
     id="guide4"
     inkscape:locked="false" /><sodipodi:guide
     position="87.503538,59.55214"
     orientation="1,0"
     id="guide5"
     inkscape:locked="false" /></sodipodi:namedview><defs
   id="defs1" />
 
<path
   id="stopLeft"
   d="M 18.323223,1.1328752 H 36.67561 c 3.384251,0 6.108745,1.5702214 6.108745,3.5206692 V 95.346471 c 0,1.950447 -2.724494,3.520654 -6.108745,3.520654 H 18.323223 c -3.384254,0 -6.108769,-1.570207 -6.108769,-3.520654 V 4.6535444 c 0,-1.9504478 2.724515,-3.5206692 6.108769,-3.5206692 z"
   fill="#000000"
   fill-opacity="1"
   style="stroke-width:0.999999" /><path
   id="stopRight"
   d="m 63.268054,1.1328752 h 18.183089 c 3.353035,0 6.052393,1.5702214 6.052393,3.5206692 V 95.346471 c 0,1.950447 -2.699358,3.520654 -6.052393,3.520654 H 63.268054 c -3.353034,0 -6.052393,-1.570207 -6.052393,-3.520654 V 4.6535444 c 0,-1.9504478 2.699359,-3.5206692 6.052393,-3.5206692 z"
   fill="#000000"
   fill-opacity="1"
   style="stroke-width:1" /></svg>
