<?xml version="1.0" encoding="UTF-8" standalone="no"?>
<svg
   viewBox=" 0 0  100 100 "
   width="100"
   version="1.1"
   id="playlistBooster-twoFiles"
   heigth="100"
   xml:space="preserve"
   sodipodi:docname="playlistBooster-playlist-top.svg"
   inkscape:version="1.3.2 (091e20e, 2023-11-25, custom)"
   xmlns:inkscape="http://www.inkscape.org/namespaces/inkscape"
   xmlns:sodipodi="http://sodipodi.sourceforge.net/DTD/sodipodi-0.dtd"
   xmlns="http://www.w3.org/2000/svg"
   xmlns:svg="http://www.w3.org/2000/svg"><sodipodi:namedview
   id="namedview1"
   pagecolor="#ffffff"
   bordercolor="#111111"
   borderopacity="1"
   inkscape:showpageshadow="0"
   inkscape:pageopacity="0"
   inkscape:pagecheckerboard="1"
   inkscape:deskcolor="#d1d1d1"
   inkscape:zoom="2"
   inkscape:cx="57.75"
   inkscape:cy="50.75"
   inkscape:current-layer="playlistBooster-twoFiles"
   showguides="true"><sodipodi:guide
     position="51.665675,64.595086"
     orientation="0,-1"
     id="guide1"
     inkscape:locked="false" /><sodipodi:guide
     position="50.249508,43.866074"
     orientation="1,0"
     id="guide2"
     inkscape:locked="false" /><sodipodi:guide
     position="47.361484,67.523048"
     orientation="0.70710678,-0.70710678"
     id="guide3"
     inkscape:locked="false" /><sodipodi:guide
     position="53.007341,67.487651"
     orientation="-0.70710678,-0.70710678"
     id="guide4"
     inkscape:locked="false" /></sodipodi:namedview><defs
   id="defs1" />
   <g
   id="gTwoFiles" />
<g
   id="g4"
   transform="translate(-0.19608391,0.64270767)"><g
     id="g2"
     style="fill:#000000;stroke-width:0.892377"
     transform="matrix(1.1205162,0,0,1.1206905,-196.35983,-40.923479)"><path
       id="path1"
       style="fill:#000000;fill-rule:evenodd;stroke-width:0.892375"
       d="m 193.10561,37.900562 c -4.68101,0 -8.56275,4.173086 -8.56275,8.854107 v 67.898351 c 0,4.68101 3.88174,8.56275 8.56275,8.56275 h 53.81901 c 4.68103,0 8.60811,-3.06349 8.60811,-7.74451 V 60.792135 c 0,-4.667408 -1.63285,-7.132037 -4.50294,-9.721199 0,0 -7.43211,-7.807453 -7.53864,-7.891058 -3.32845,-3.14638 -4.77333,-5.279316 -9.6898,-5.279316 z m 42.98124,7.180986 c 4.02626,4.426907 8.20953,8.284031 12.37307,12.376558 l -0.24251,57.194914 c -0.004,0.77954 -0.51325,1.29278 -1.29279,1.29278 h -53.81901 c -0.77954,0 -1.29278,-0.51324 -1.29278,-1.29278 V 46.754669 c 0,-0.779537 0.51477,-1.632857 1.29278,-1.584144 z" /><path
       d="m 229.7969,47.448123 v 8.815603 c 0,3.738447 3.09825,6.8367 6.8367,6.8367 3.30414,-0.0086 8.49905,-4.5e-4 8.49905,-0.01184 0,0 1.42118,-0.885662 1.42118,-2.705421 -0.0353,-1.731421 -1.40395,-2.92967 -1.40395,-2.92967 h -8.51631 c -0.70773,0 -1.18977,-0.482042 -1.18977,-1.18977 v -8.789611 c 0,0 -0.78769,-1.06266 -2.69578,-1.097995 -1.51941,-0.03534 -2.35056,0.214971 -2.95112,1.072 0,1e-6 0,4e-6 0,4e-6 z"
       style="fill:#000000;fill-opacity:1;fill-rule:evenodd;stroke-width:0.892375"
       id="path2" /></g><path
     id="path15"
     style="fill:#000000;fill-rule:evenodd;stroke-width:0.999987"
     d="m 50.166016,23.736874 c -4.531306,4.392826 -16.22203,16.260765 -20.09375,20.130859 -0.490913,0.490632 1.306735,2.473385 2.371093,3.527344 1.01914,1.0091 2.9132,2.687644 3.38086,2.220703 2.891686,-2.886885 6.673829,-6.67924 10.357422,-10.371093 0.003,12.680622 0.01834,28.043702 0.01367,39.052734 -0.07582,1.327086 3.229377,1.443811 4.369141,1.416016 0.854242,-0.02089 3.725618,-0.08558 3.736328,-1.457032 0.08033,-10.286826 0.03954,-26.836889 0.02148,-38.916015 3.653797,3.662053 7.396568,7.414996 10.261718,10.27539 0.46766,0.466941 2.36172,-1.211603 3.38086,-2.220703 1.064358,-1.053959 2.863959,-3.036712 2.373047,-3.527344 C 66.46617,39.997639 54.697321,28.1297 50.166016,23.736874 Z" /></g><g
   id="g16"
   style="fill:#000000;stroke-width:1.02399"
   transform="matrix(0.96546454,0,0,0.98780698,-89.184557,11.692624)"><path
     d="m 154.47169,7.7387696 c -0.014,-0.77292 -0.0566,-3.3704 -0.97286,-3.38009 -8.37661,-0.0886 -24.24121,-0.009 -31.50805,-0.01 -0.92133,-1.8e-4 -1.09463,2.41859 -1.08487,3.77387 0.009,1.29765 0.21334,3.5830904 1.0906,3.5835504 8.78999,0.005 22.64068,-0.0188 31.52897,-0.0137 0.88659,0.0686 0.96478,-2.9223704 0.94621,-3.9536304 z"
     style="fill:#000000;fill-rule:evenodd;stroke-width:1.02398"
     id="path16" /></g></svg>
