<?xml version="1.0" encoding="UTF-8" standalone="no"?>
<!-- Created with Inkscape (http://www.inkscape.org/) -->

<svg
   width="100"
   height="100"
   version="1.1"
   xml:space="preserve"
   id="video-screen"
   viewBox="0 0 100 100"
   sodipodi:docname="playlistBooster-video-screen-on.svg"
   inkscape:version="1.3.2 (091e20e, 2023-11-25, custom)"
   xmlns:inkscape="http://www.inkscape.org/namespaces/inkscape"
   xmlns:sodipodi="http://sodipodi.sourceforge.net/DTD/sodipodi-0.dtd"
   xmlns:xlink="http://www.w3.org/1999/xlink"
   xmlns="http://www.w3.org/2000/svg"
   xmlns:svg="http://www.w3.org/2000/svg"><sodipodi:namedview
   id="namedview1"
   pagecolor="#ffffff"
   bordercolor="#111111"
   borderopacity="1"
   inkscape:showpageshadow="0"
   inkscape:pageopacity="0"
   inkscape:pagecheckerboard="1"
   inkscape:deskcolor="#d1d1d1"
   inkscape:zoom="2.8284271"
   inkscape:cx="137.53227"
   inkscape:cy="66.821591"
   inkscape:current-layer="video-screen"
   showguides="true"><sodipodi:guide
     position="191.22627,-10.130311"
     orientation="0,-1"
     id="guide5"
     inkscape:locked="false" /></sodipodi:namedview>
   <defs
   id="defs1">   
  
 <clipPath
   id="SVGID_14_">
		<use
   xlink:href="#SVGID_13_"
   style="overflow:visible"
   id="use9" />
	</clipPath><clipPath
   id="clipPath1">
		<use
   xlink:href="#SVGID_13_"
   style="overflow:visible"
   id="use1" />
	</clipPath><clipPath
   id="clipPath2">
		<use
   xlink:href="#SVGID_13_"
   style="overflow:visible"
   id="use2" />
	</clipPath><clipPath
   id="clipPath3">
		<use
   xlink:href="#SVGID_13_"
   style="overflow:visible"
   id="use3" />
	</clipPath><clipPath
   id="clipPath4">
		<use
   xlink:href="#SVGID_13_"
   style="overflow:visible"
   id="use4" />
	</clipPath><clipPath
   id="clipPath5">
		<use
   xlink:href="#SVGID_13_"
   style="overflow:visible"
   id="use5" />
	</clipPath><clipPath
   id="clipPath6">
		<use
   xlink:href="#SVGID_13_"
   style="overflow:visible"
   id="use6" />
	</clipPath><clipPath
   id="clipPath7">
		<use
   xlink:href="#SVGID_13_"
   style="overflow:visible"
   id="use7" />
	</clipPath><clipPath
   id="clipPath8">
		<use
   xlink:href="#SVGID_13_"
   style="overflow:visible"
   id="use8" />
	</clipPath><clipPath
   id="clipPath10">
		<use
   xlink:href="#SVGID_13_"
   style="overflow:visible"
   id="use10" />
	</clipPath><clipPath
   id="clipPath11">
		<use
   xlink:href="#SVGID_13_"
   style="overflow:visible"
   id="use11" />
	</clipPath><clipPath
   id="clipPath12">
		<use
   xlink:href="#SVGID_13_"
   style="overflow:visible"
   id="use12" />
	</clipPath><clipPath
   id="clipPath13">
		<use
   xlink:href="#SVGID_13_"
   style="overflow:visible"
   id="use13" />
	</clipPath><clipPath
   id="clipPath14">
		<use
   xlink:href="#SVGID_13_"
   style="overflow:visible"
   id="use14" />
	</clipPath><clipPath
   id="clipPath15">
		<use
   xlink:href="#SVGID_13_"
   style="overflow:visible"
   id="use15" />
	</clipPath><clipPath
   id="clipPath16">
		<use
   xlink:href="#SVGID_13_"
   style="overflow:visible"
   id="use16" />
	</clipPath><clipPath
   id="clipPath17">
		<use
   xlink:href="#SVGID_13_"
   style="overflow:visible"
   id="use17" />
	</clipPath><clipPath
   id="clipPath18">
		<use
   xlink:href="#SVGID_13_"
   style="overflow:visible"
   id="use18" />
	</clipPath><clipPath
   id="clipPath19">
		<use
   xlink:href="#SVGID_13_"
   style="overflow:visible"
   id="use19" />
	</clipPath><clipPath
   id="clipPath20">
		<use
   xlink:href="#SVGID_13_"
   style="overflow:visible"
   id="use20" />
	</clipPath><clipPath
   id="clipPath21">
		<use
   xlink:href="#SVGID_13_"
   style="overflow:visible"
   id="use21" />
	</clipPath><clipPath
   id="clipPath22">
		<use
   xlink:href="#SVGID_13_"
   style="overflow:visible"
   id="use22" />
	</clipPath><clipPath
   id="clipPath23">
		<use
   xlink:href="#SVGID_13_"
   style="overflow:visible"
   id="use23" />
	</clipPath><clipPath
   id="clipPath24">
		<use
   xlink:href="#SVGID_13_"
   style="overflow:visible"
   id="use24" />
	</clipPath><clipPath
   id="clipPath25">
		<use
   xlink:href="#SVGID_13_"
   style="overflow:visible"
   id="use25" />
	</clipPath><clipPath
   id="clipPath26">
		<use
   xlink:href="#SVGID_13_"
   style="overflow:visible"
   id="use26" />
	</clipPath><clipPath
   id="clipPath27">
		<use
   xlink:href="#SVGID_13_"
   style="overflow:visible"
   id="use27" />
	</clipPath><clipPath
   id="clipPath28">
		<use
   xlink:href="#SVGID_13_"
   style="overflow:visible"
   id="use28" />
	</clipPath><clipPath
   id="clipPath29">
		<use
   xlink:href="#SVGID_13_"
   style="overflow:visible"
   id="use29" />
	</clipPath><clipPath
   id="clipPath30">
		<use
   xlink:href="#SVGID_13_"
   style="overflow:visible"
   id="use30" />
	</clipPath><clipPath
   id="clipPath31">
		<use
   xlink:href="#SVGID_13_"
   style="overflow:visible"
   id="use31" />
	</clipPath><clipPath
   id="clipPath32">
		<use
   xlink:href="#SVGID_13_"
   style="overflow:visible"
   id="use32" />
	</clipPath><clipPath
   id="clipPath33">
		<use
   xlink:href="#SVGID_13_"
   style="overflow:visible"
   id="use33" />
	</clipPath><clipPath
   id="clipPath34">
		<use
   xlink:href="#SVGID_13_"
   style="overflow:visible"
   id="use34" />
	</clipPath><clipPath
   id="clipPath35">
		<use
   xlink:href="#SVGID_13_"
   style="overflow:visible"
   id="use35" />
	</clipPath><clipPath
   id="clipPath36">
		<use
   xlink:href="#SVGID_13_"
   style="overflow:visible"
   id="use36" />
	</clipPath><clipPath
   id="clipPath37">
		<use
   xlink:href="#SVGID_13_"
   style="overflow:visible"
   id="use37" />
	</clipPath><clipPath
   id="clipPath38">
		<use
   xlink:href="#SVGID_13_"
   style="overflow:visible"
   id="use38" />
	</clipPath><clipPath
   id="clipPath39">
		<use
   xlink:href="#SVGID_13_"
   style="overflow:visible"
   id="use39" />
	</clipPath><clipPath
   id="clipPath40">
		<use
   xlink:href="#SVGID_13_"
   style="overflow:visible"
   id="use40" />
	</clipPath><clipPath
   id="clipPath41">
		<use
   xlink:href="#SVGID_13_"
   style="overflow:visible"
   id="use41" />
	</clipPath><clipPath
   id="clipPath42">
		<use
   xlink:href="#SVGID_13_"
   style="overflow:visible"
   id="use42" />
	</clipPath><clipPath
   id="clipPath43">
		<use
   xlink:href="#SVGID_13_"
   style="overflow:visible"
   id="use43" />
	</clipPath><clipPath
   id="clipPath44">
		<use
   xlink:href="#SVGID_13_"
   style="overflow:visible"
   id="use44" />
	</clipPath><clipPath
   id="clipPath45">
		<use
   xlink:href="#SVGID_13_"
   style="overflow:visible"
   id="use45" />
	</clipPath><clipPath
   id="clipPath46">
		<use
   xlink:href="#SVGID_13_"
   style="overflow:visible"
   id="use46" />
	</clipPath><clipPath
   id="clipPath47">
		<use
   xlink:href="#SVGID_13_"
   style="overflow:visible"
   id="use47" />
	</clipPath><clipPath
   id="clipPath48">
		<use
   xlink:href="#SVGID_13_"
   style="overflow:visible"
   id="use48" />
	</clipPath><clipPath
   id="clipPath49">
		<use
   xlink:href="#SVGID_13_"
   style="overflow:visible"
   id="use49" />
	</clipPath><clipPath
   id="clipPath50">
		<use
   xlink:href="#SVGID_13_"
   style="overflow:visible"
   id="use50" />
	</clipPath><clipPath
   id="clipPath51">
		<use
   xlink:href="#SVGID_13_"
   style="overflow:visible"
   id="use51" />
	</clipPath><clipPath
   id="clipPath52">
		<use
   xlink:href="#SVGID_13_"
   style="overflow:visible"
   id="use52" />
	</clipPath><clipPath
   id="clipPath53">
		<use
   xlink:href="#SVGID_13_"
   style="overflow:visible"
   id="use53" />
	</clipPath><clipPath
   id="clipPath54">
		<use
   xlink:href="#SVGID_13_"
   style="overflow:visible"
   id="use54" />
	</clipPath><clipPath
   id="clipPath55">
		<use
   xlink:href="#SVGID_13_"
   style="overflow:visible"
   id="use55" />
	</clipPath><clipPath
   id="clipPath56">
		<use
   xlink:href="#SVGID_13_"
   style="overflow:visible"
   id="use56" />
	</clipPath><clipPath
   id="clipPath57">
		<use
   xlink:href="#SVGID_13_"
   style="overflow:visible"
   id="use57" />
	</clipPath><clipPath
   id="clipPath58">
		<use
   xlink:href="#SVGID_13_"
   style="overflow:visible"
   id="use58" />
	</clipPath><clipPath
   id="clipPath59">
		<use
   xlink:href="#SVGID_13_"
   style="overflow:visible"
   id="use59" />
	</clipPath><clipPath
   id="clipPath60">
		<use
   xlink:href="#SVGID_13_"
   style="overflow:visible"
   id="use60" />
	</clipPath><clipPath
   id="clipPath61">
		<use
   xlink:href="#SVGID_13_"
   style="overflow:visible"
   id="use61" />
	</clipPath><clipPath
   id="clipPath62">
		<use
   xlink:href="#SVGID_13_"
   style="overflow:visible"
   id="use62" />
	</clipPath><clipPath
   id="clipPath63">
		<use
   xlink:href="#SVGID_13_"
   style="overflow:visible"
   id="use63" />
	</clipPath><clipPath
   id="clipPath64">
		<use
   xlink:href="#SVGID_13_"
   style="overflow:visible"
   id="use64" />
	</clipPath><clipPath
   id="clipPath65">
		<use
   xlink:href="#SVGID_13_"
   style="overflow:visible"
   id="use65" />
	</clipPath><clipPath
   id="clipPath66">
		<use
   xlink:href="#SVGID_13_"
   style="overflow:visible"
   id="use66" />
	</clipPath><clipPath
   id="clipPath67">
		<use
   xlink:href="#SVGID_13_"
   style="overflow:visible"
   id="use67" />
	</clipPath><rect
   id="SVGID_13_"
   x="21.5"
   y="20.1"
   width="307"
   height="172.60001" /></defs>
<path
   id="rect1"
   style="fill:none;fill-rule:evenodd;stroke:#000000;stroke-width:4;stroke-dasharray:none"
   d="m 12.235044,2.7636953 h 75.52991 c 5.376668,0 9.705178,4.2964846 9.705178,9.6333757 v 40.735412 c 0,5.336887 -4.32851,9.633376 -9.705178,9.633376 h -75.52991 c -5.3766711,0 -9.7051787,-4.296489 -9.7051787,-9.633376 V 12.397071 c 0,-5.3368911 4.3285076,-9.6333757 9.7051787,-9.6333757 z" /><path
   id="rect2"
   style="fill:none;fill-rule:evenodd;stroke:#000000;stroke-width:4;stroke-dasharray:none"
   d="M 9.0340837,9.6446759 H 90.965917 V 55.884875 H 9.0340837 Z" /><g
   id="g270"
   transform="matrix(1.0294861,0,0,1.0297838,-188.89298,-1.2201961)"
   style="stroke-width:0.971218"><path
     d="m 235.91406,10.082031 c 1.03341,1.340892 1.90116,3.286465 2.47266,5.136719 -0.33369,-1.649771 -0.25497,-3.412768 -0.13086,-5.136719 z"
     style="fill:#68e45e;fill-rule:evenodd;stroke-width:0.971218px"
     id="path267" /><path
     d="m 191.89453,10.082031 v 45.257813 h 15.88281 c 1.84961,-3.728709 5.78916,-5.963738 10.62891,-7.556641 -0.94367,2.544766 -1.38645,5.160306 -3.36914,7.556641 h 19.0332 c -4.23349,-3.750267 -4.71977,-8.086669 -6.13867,-12.277344 3.60664,1.3001 6.80308,2.921376 9.25977,5.121094 1.89444,1.696348 3.34869,3.736757 4.20898,6.242187 -0.26449,0.306066 -0.53126,0.609621 -0.79687,0.914063 h 10.55273 c 2.54917,-8.757501 10.5298,-13.635879 20.66797,-16.972657 -2.15019,5.798309 -2.87305,11.800505 -9.40625,16.972657 h 9.6875 V 24.228516 c -0.91008,0.691389 -2.3351,1.42666 -2.75977,2.158203 -2.43169,2.587177 -5.84586,4.564473 -9.51172,4.046875 -2.31886,0.36568 -3.12937,-1.478356 -0.43945,-1.59375 3.10741,-1.052312 -2.62533,-0.147565 -3.82812,0.117187 0.63853,-1.190479 4.47955,-1.252913 5.40625,-3.037109 -2.06859,-0.456765 -2.96385,0.275067 -4.56055,0.0918 0.99959,-2.349035 4.49017,-3.37325 6.94922,-3.894532 2.92265,-0.118442 5.84127,0.342827 8.74414,0.66211 V 10.082031 h -18.04883 c 0.0571,0.563386 0.12535,1.127942 0.17969,1.689453 -0.0905,2.954908 -1.41445,5.767091 -3.1836,8.085938 -2.46267,0.352468 0.50766,-3.199753 0.0176,-4.636719 -1.77252,4.867525 -1.53058,1.49225 -1.75586,2.552734 0.0655,1.566259 -1.7178,2.214051 -1.07812,0.210938 0.21286,-1.008123 -0.12085,-3.609163 -0.56836,-1.138672 -0.39983,0.595913 -0.22182,2.939775 -1.44531,2.150391 -1.1678,-2.912638 -0.74067,-6.235183 0.8164,-8.914063 h -0.80664 c 0.19142,1.134082 -0.24475,2.295526 -0.9375,3.324219 -0.14299,-0.10468 -0.53228,2.32545 -0.6543,1.318359 -0.15121,-0.431732 -0.3695,-0.844778 -0.60742,-1.25 0.42682,1.306405 0.54459,2.68943 0.15625,4.121094 -1.1216,2.886996 -1.31296,1.245872 -1.99414,0.238281 -1.68429,-0.766531 0.56233,0.874803 -1.21679,1.494141 -0.48283,0.271283 -0.67171,-0.530899 -1.00977,-0.707031 -0.61764,-0.727385 -1.02057,-1.525014 -1.30078,-2.359375 0.33446,1.322145 0.51078,2.523528 0.43164,3.28125 l -0.0117,0.09766 c -1.88375,-0.944025 -5.38597,-6.412549 -5.55859,-9.558594 z"
     style="fill:#68e45e;fill-rule:evenodd;stroke-width:0.971218px"
     id="path270" /><path
     d="m 237.19141,48.183594 c -2.45669,-2.19973 -5.65313,-3.820988 -9.25977,-5.121094 1.4189,4.190699 1.90512,8.527053 6.13867,12.277344 h 3.52735 c -0.1194,-1.135795 -0.27848,-2.272478 -0.38672,-3.408203 -0.0475,-0.503342 -0.0731,-1.006821 -0.0898,-1.509766 -0.005,-0.134057 -0.0199,-0.268325 -0.0215,-0.402344 -0.003,-0.226814 0.002,-0.453001 0.01,-0.679687 0.002,-0.07885 0.002,-0.157501 0.006,-0.236328 0.0149,-0.306156 0.039,-0.612106 0.0762,-0.917969 z"
     style="fill:#009925;fill-rule:evenodd;stroke-width:0.971218px"
     id="path255" /><path
     d="m 262.41797,55.339844 c 6.53328,-5.172192 7.25606,-11.174308 9.40625,-16.972657 -10.13825,3.336802 -18.1188,8.215084 -20.66797,16.972657 z"
     style="fill:#009925;fill-rule:evenodd;stroke-width:0.971218px"
     id="path251" /><path
     style="fill:#ffd209;fill-opacity:1;stroke-width:0.971218"
     d="m 253.89775,16.812944 c 2.64846,-1.02213 4.98064,-3.058451 4.37158,-6.223967 -1.91513,-0.170649 -5.09562,1.953594 -4.4785,4.547262 0.19408,0.47222 -1.15952,3.018948 0.10692,1.676705 z"
     id="path146" /><path
     d="m 246.23242,10.082031 h -3.71094 c 0.0429,1.64361 1.54842,3.013377 2.11914,4.642578 0.12202,1.007094 0.51131,-1.423039 0.6543,-1.318359 0.69275,-1.028696 1.12892,-2.190134 0.9375,-3.324219 z"
     style="fill:#ffd209;stroke-width:0.971218"
     id="path261" /><path
     d="m 235.91406,10.082031 h -2.38476 c 0.17262,3.146048 3.67484,8.614568 5.55859,9.558594 l 0.0117,-0.09766 c 0.0791,-0.757723 -0.0972,-1.959103 -0.43164,-3.28125 -0.11465,-0.341367 -0.20969,-0.689177 -0.28125,-1.042969 -0.5715,-1.850254 -1.43925,-3.795827 -2.47266,-5.136719 z"
     style="fill:#ffd209;stroke-width:0.971218"
     id="path265" /><path
     style="fill:#ffd209;fill-opacity:1;stroke-width:0.971218"
     d="m 256.49085,24.407653 c 2.52356,0.140024 10.17018,-4.31076 10.43538,-7.130934 -2.46716,-0.478627 -9.94618,4.012971 -10.68732,6.49251 -0.41057,0.559176 -0.73067,1.130962 0.25194,0.638424 z"
     id="path137" /><path
     d="m 254.05664,10.082031 h -7.01758 c -1.55707,2.678888 -1.9842,6.001413 -0.8164,8.914063 1.22349,0.789388 1.04548,-1.554478 1.44531,-2.150391 0.44751,-2.470503 0.78122,0.130545 0.56836,1.138672 -0.63968,2.003121 1.14362,1.355325 1.07812,-0.210938 0.22528,-1.060492 -0.0167,2.314811 1.75586,-2.552734 0.49016,1.43697 -2.48029,4.989187 -0.0176,4.636719 1.76915,-2.318855 3.0931,-5.131018 3.1836,-8.085938 -0.0543,-0.561515 -0.12261,-1.126067 -0.17969,-1.689453 z"
     style="fill:#ffd310;stroke-width:0.971218"
     id="path260" /><path
     d="m 242.20508,10.082031 h -3.94922 c -0.21577,2.997267 -0.3358,6.126344 1.71289,8.539063 0.33806,0.176132 0.52694,0.978314 1.00977,0.707031 1.77914,-0.61934 -0.4675,-2.260674 1.21679,-1.494141 0.68118,1.007593 0.87254,2.648721 1.99414,-0.238281 0.38834,-1.431668 0.27057,-2.814687 -0.15625,-4.121094 -0.55416,-0.943852 -1.21697,-1.843009 -1.43554,-2.822265 -0.1288,-0.191613 -0.25578,-0.38405 -0.39258,-0.570313 z"
     style="fill:#ffdd55;stroke-width:0.971218"
     id="path263" /><path
     style="fill:#ffdd55;stroke-width:0.971218"
     d="m 256.24858,23.12031 c 3.80741,-1.246245 5.15166,-5.375164 6.85679,-8.583887 1.7321,-3.152803 -3.04686,-0.254539 -4.46694,0.05414 -2.70502,1.053999 -5.2254,3.290586 -5.50799,6.328598 1.29216,1.575226 2.13007,-2.245241 3.03015,-0.596731 -0.604,0.966143 -3.25691,3.195268 0.088,2.797884 z"
     id="path128" /><path
     d="m 272.10547,22.779297 c -2.90287,-0.319283 -5.82149,-0.780552 -8.74414,-0.66211 -2.45905,0.521282 -5.94963,1.545497 -6.94922,3.894532 1.5967,0.18327 2.49196,-0.548562 4.56055,-0.0918 -0.9267,1.784196 -4.76772,1.84663 -5.40625,3.037109 1.20279,-0.264752 6.93553,-1.169499 3.82812,-0.117187 -2.68992,0.115394 -1.87941,1.95943 0.43945,1.59375 3.66586,0.517598 7.08003,-1.459698 9.51172,-4.046875 0.42467,-0.731543 1.84969,-1.466814 2.75977,-2.158203 z"
     style="fill:#ffd310;stroke-width:0.971218"
     id="path269" /><path
     style="fill:#ffd310;fill-opacity:1;stroke-width:0.971218"
     d="m 235.71075,24.04683 c 0.76966,-0.907507 -3.72001,-3.493466 -1.31503,-3.109817 0.85059,0.932921 4.02487,2.541849 1.71858,0.34367 -0.65883,-0.906188 -1.11323,-1.356977 -0.20301,-1.731818 1.71881,0.962641 1.16157,0.591855 2.34474,1.78329 1.07349,-1.751428 -1.62541,-3.957557 -2.38916,-5.641795 -2.32583,-2.637952 -5.89244,-3.502313 -8.95603,-4.981415 -3.25821,-1.5397721 0.17316,2.948934 0.16415,4.354906 0.85307,3.194306 2.44011,6.46786 5.59118,7.933533 0.93519,0.437533 1.99358,1.140181 3.04458,1.049446 z"
     id="path122" /><path
     style="fill:#ffd209;fill-opacity:1;stroke-width:0.971218"
     d="m 265.7674,35.103454 c 1.99464,0.131405 4.79225,-1.330454 1.75894,-2.574216 -1.4274,-1.427238 -5.08364,-0.0426 -5.0977,0.750085 1.28748,0.278005 2.00047,1.998238 3.33876,1.824131 z"
     id="path119" /><path
     style="fill:#ffd209;fill-opacity:1;stroke-width:0.971218"
     d="m 227.54348,23.503502 c 1.52779,-0.128205 3.10082,0.211467 1.19664,-1.252987 -0.74159,-2.208175 -4.20396,-2.609378 -5.57967,-1.467402 0.86522,1.521609 2.42537,3.363959 4.38303,2.72039 z"
     id="path116" /><path
     style="fill:#ffdd55;stroke-width:0.971218"
     d="m 263.37207,38.173134 c 1.90203,-0.144396 4.87067,0.373951 6.12089,-0.48044 -2.78918,-2.86127 -6.07524,-6.482164 -10.49339,-5.914045 -2.37946,-0.266143 -1.49959,2.008451 0.31188,1.903521 1.18928,0.134874 2.81463,1.800379 0.19046,1.051629 -1.22935,-0.731856 -4.46801,-0.601823 -2.08168,1.442443 1.6365,1.400619 3.83811,1.961061 5.95184,1.996892 z"
     id="path113" /><path
     style="fill:#ffdd55;stroke-width:0.971218"
     d="m 230.8237,29.616291 c 1.83496,0.705799 4.59177,-1.367915 1.53387,-1.988502 -1.16287,-0.117067 -3.44276,-0.830225 -0.32478,-0.513336 1.33772,0.554927 3.98069,-0.329097 1.4903,-2.084323 -3.43427,-2.714638 -8.01078,-1.444988 -11.80172,-0.351565 -0.74713,1.104105 2.67526,2.171353 3.78297,3.103595 1.67159,0.830599 3.39224,1.859986 5.31936,1.834131 z"
     id="path110" /><path
     style="fill:#ffd209;fill-opacity:1;stroke-width:0.971218"
     d="m 263.4643,41.895145 c 1.99715,-0.151451 -1.05985,-4.434858 -2.86375,-3.923465 -1.51143,-0.279112 -3.15736,-0.520241 -1.41127,1.139616 0.48912,2.083828 2.28435,2.812929 4.27502,2.783849 z"
     id="path107" /><path
     style="fill:#ffd209;fill-opacity:1;stroke-width:0.971218"
     d="m 225.30386,31.5519 c 1.31523,-0.438275 2.45822,-1.283025 3.68427,-1.924176 -1.54905,-0.03296 -2.6111,-1.849399 -4.15342,-1.361749 -1.93042,0.276501 -4.65835,2.494079 -1.21294,2.907317 0.552,0.15876 1.10659,0.330068 1.68209,0.378608 z"
     id="path104" /><path
     style="fill:#ffd310;fill-opacity:1;stroke-width:0.971218"
     d="m 265.86081,50.986678 c -0.69071,-2.631383 -2.05635,-5.094676 -3.10332,-7.613812 -1.43319,-2.892017 -4.3033,-4.858496 -7.27828,-5.912111 -1.29879,1.167994 1.28866,1.23176 1.6095,2.729433 2.12977,3.010396 -1.9554,0.401023 -2.72703,-0.69788 -2.16946,-1.25084 3.30808,4.870007 -0.10867,2.405574 -0.63804,-0.841318 -2.7045,-2.722988 -1.94322,-0.363899 1.05973,3.272076 3.53772,6.126638 6.94101,7.026996 2.17961,0.852012 4.40202,1.719069 6.61001,2.425702 z"
     id="path101" /><path
     style="fill:#ffd310;fill-opacity:1;stroke-width:0.971218"
     d="m 219.16809,38.406967 c 4.03867,0.22286 8.28755,2.286177 12.18098,0.258931 1.05622,-0.419635 4.81649,-2.784504 2.75027,-3.107129 -1.21754,0.709757 -4.57564,0.850226 -1.65953,-0.482152 1.45208,-0.4004 2.48856,-1.752802 0.26867,-0.960181 -1.106,0.119908 -1.84219,0.852018 -1.58785,-0.340107 1.46791,-1.305466 2.112,-0.553093 2.6152,-2.019473 -2.24424,-0.734832 -4.93562,-0.462716 -7.22555,0.204291 -3.07022,1.265347 -5.52796,3.638587 -8.19476,5.565069 -1.27376,0.843039 0.28196,0.802884 0.85259,0.880758 z"
     id="path98" /><path
     style="fill:#ffd209;fill-opacity:1;stroke-width:0.971218"
     d="m 257.02112,53.181426 c 0.92783,-2.473192 -3.83164,-10.587243 -6.13969,-11.698645 -0.94253,-0.56048 3.54412,7.990921 3.03793,8.909239 0.66633,1.184135 1.71604,2.494693 3.10176,2.789406 z"
     id="path95" /><path
     style="fill:#ffd209;fill-opacity:1;stroke-width:0.971218"
     d="m 225.41317,44.573723 c 2.49403,0.55035 7.30129,-4.98799 6.90511,-5.815253 -2.52236,-0.190161 -7.40448,2.936422 -7.95381,5.494769 -0.32599,0.493921 0.89519,0.238678 1.0487,0.320487 z"
     id="path92" /><path
     style="fill:#ffdd55;stroke-width:0.971218"
     d="m 252.21087,54.047839 c 0.69134,-3.701221 1.65489,-8.181325 -1.17448,-11.272599 -1.31297,-2.430496 -2.54803,-0.05233 -1.47754,1.498311 0.46588,0.953418 0.992,3.643647 0.0682,1.154994 -0.17616,-1.514971 -2.87504,-4.68304 -3.19001,-1.51014 -0.37464,3.93763 2.56224,6.941894 4.61561,9.948237 0.36795,0.406825 1.14713,1.515347 1.15825,0.181197 z"
     id="path89" /><path
     style="fill:#ffdd55;stroke-width:0.971218"
     d="m 228.48823,48.232813 c 3.05339,-1.269926 6.4852,-2.341371 8.68619,-4.949487 1.52969,-1.120828 1.65536,-4.732077 -0.63421,-2.601617 -0.77843,1.077425 -1.75219,1.399374 0.42376,-0.910116 1.31694,-0.890406 0.97086,-2.613829 -2.05981,-1.463813 -4.13291,1.244803 -5.43842,5.735223 -6.83748,9.323249 -0.21894,0.484675 -0.49064,1.035822 0.42155,0.601784 z"
     id="path86" /><path
     style="fill:#ffd209;fill-opacity:1;stroke-width:0.971218"
     d="m 247.88052,54.749237 c 2.0169,-2.329612 0.85997,-4.923043 -0.64015,-7.081469 -0.75868,1.164897 -2.68776,4.755349 -0.58445,6.743768 0.30422,0.465063 0.86457,1.359534 1.2246,0.337697 z"
     id="path83" /><path
     style="fill:#ffd209;fill-opacity:1;stroke-width:0.971218"
     d="m 234.49887,49.930061 c 3.2508,-0.864997 3.10227,-3.857442 3.5266,-6.492324 -2.50906,1.334409 -5.1593,3.018811 -4.29733,6.394816 -0.0192,0.472822 0.61872,0.161452 0.77073,0.09751 z"
     id="path80" /><path
     d="m 240.60352,55.339844 c 0.26561,-0.304442 0.53238,-0.607997 0.79687,-0.914063 -0.86029,-2.505451 -2.31447,-4.545825 -4.20898,-6.242187 v 0.002 c -0.28944,2.379254 0.1554,4.768149 0.40625,7.154297 z"
     style="fill:#ffd310;stroke-width:0.971218"
     id="path254" /><path
     d="m 241.08594,41.349609 c -2.18072,0.936515 -3.11899,4.033792 -3.80664,6.244141 -0.0346,0.19652 -0.0639,0.393181 -0.0879,0.589844 1.89452,1.696364 3.34869,3.736733 4.20898,6.242187 1.4648,-1.695004 2.86736,-3.438389 3.70703,-5.517578 0.44686,-1.952185 1.0671,-5.369314 -0.57812,-6.544922 -0.28064,0.981387 -1.51983,5.259741 -1.57813,2.109375 0.54923,-1.409954 -0.19091,-3.548971 -0.625,-1.21289 -0.4591,1.011813 -0.31092,2.837494 -1.22656,1.957031 -0.0553,-1.997552 0.04,-2.26768 -0.0137,-3.867188 z"
     style="fill:#ffd310;stroke-width:0.971218"
     id="path248" /><path
     id="path171"
     style="fill:#ffcd00;fill-rule:evenodd;stroke-width:0.971218;stroke-linecap:round;stroke-linejoin:round;paint-order:stroke fill markers"
     d="m 257.35774,33.628701 a 12.202466,12.202466 0 0 1 -14.9449,8.628446 12.202466,12.202466 0 0 1 -8.62845,-14.944906 12.202466,12.202466 0 0 1 14.94491,-8.628448 12.202466,12.202466 0 0 1 8.62844,14.944908 z" /><path
     id="path172"
     style="fill:#e9be00;fill-opacity:1;fill-rule:evenodd;stroke-width:0.971218;stroke-linecap:round;stroke-linejoin:round;paint-order:stroke fill markers"
     d="m 255.67392,33.17752 a 10.459257,10.459257 0 0 1 -12.80991,7.395813 10.459257,10.459257 0 0 1 -7.39582,-12.809921 10.459257,10.459257 0 0 1 12.80993,-7.395812 10.459257,10.459257 0 0 1 7.3958,12.80992 z" /><path
     id="path173"
     style="fill:#947800;fill-opacity:1;fill-rule:evenodd;stroke-width:0.971213;stroke-linecap:round;stroke-linejoin:round;paint-order:stroke fill markers"
     d="m 254.58193,32.884922 a 9.3287373,9.3287373 0 0 1 -11.42532,6.596412 9.3287373,9.3287373 0 0 1 -6.59641,-11.42532 9.3287373,9.3287373 0 0 1 11.42532,-6.596415 9.3287373,9.3287373 0 0 1 6.59641,11.425323 z" /><circle
     style="fill:#000000;fill-opacity:1;fill-rule:evenodd;stroke-width:0.971218;stroke-linecap:round;stroke-linejoin:round;paint-order:stroke fill markers"
     id="circle174"
     cx="243.83142"
     cy="-41.458096"
     r="1.0573095"
     transform="rotate(15)" /><circle
     style="fill:#000000;fill-opacity:1;fill-rule:evenodd;stroke-width:0.971218;stroke-linecap:round;stroke-linejoin:round;paint-order:stroke fill markers"
     id="path174"
     cx="240.2867"
     cy="-39.650848"
     r="1.0573095"
     transform="rotate(15)" /><circle
     style="fill:#000000;fill-opacity:1;fill-rule:evenodd;stroke-width:0.971218;stroke-linecap:round;stroke-linejoin:round;paint-order:stroke fill markers"
     id="circle175"
     cx="244.17152"
     cy="-37.196865"
     r="1.0573095"
     transform="rotate(15)" /><circle
     style="fill:#000000;fill-opacity:1;fill-rule:evenodd;stroke-width:0.971218;stroke-linecap:round;stroke-linejoin:round;paint-order:stroke fill markers"
     id="circle176"
     cx="240.2867"
     cy="-35.843094"
     r="1.0573095"
     transform="rotate(15)" /><circle
     style="fill:#000000;fill-opacity:1;fill-rule:evenodd;stroke-width:0.971218;stroke-linecap:round;stroke-linejoin:round;paint-order:stroke fill markers"
     id="circle177"
     cx="249.53108"
     cy="-40.607834"
     r="1.0573095"
     transform="rotate(15)" /><circle
     style="fill:#000000;fill-opacity:1;fill-rule:evenodd;stroke-width:0.971218;stroke-linecap:round;stroke-linejoin:round;paint-order:stroke fill markers"
     id="circle178"
     cx="246.77994"
     cy="-39.650848"
     r="1.0573095"
     transform="rotate(15)" /><circle
     style="fill:#000000;fill-opacity:1;fill-rule:evenodd;stroke-width:0.971218;stroke-linecap:round;stroke-linejoin:round;paint-order:stroke fill markers"
     id="circle179"
     cx="250.32466"
     cy="-37.650337"
     r="1.0573095"
     transform="rotate(15)" /><circle
     style="fill:#000000;fill-opacity:1;fill-rule:evenodd;stroke-width:0.971218;stroke-linecap:round;stroke-linejoin:round;paint-order:stroke fill markers"
     id="circle180"
     cx="246.77994"
     cy="-35.843094"
     r="1.0573095"
     transform="rotate(15)" /><circle
     style="fill:#000000;fill-opacity:1;fill-rule:evenodd;stroke-width:0.971218;stroke-linecap:round;stroke-linejoin:round;paint-order:stroke fill markers"
     id="circle181"
     cx="250.32466"
     cy="-33.762417"
     r="1.0573095"
     transform="rotate(15)" /><circle
     style="fill:#000000;fill-opacity:1;fill-rule:evenodd;stroke-width:0.971218;stroke-linecap:round;stroke-linejoin:round;paint-order:stroke fill markers"
     id="circle182"
     cx="247.34679"
     cy="-32.63538"
     r="1.0573095"
     transform="rotate(15)" /><circle
     style="fill:#000000;fill-opacity:1;fill-rule:evenodd;stroke-width:0.971218;stroke-linecap:round;stroke-linejoin:round;paint-order:stroke fill markers"
     id="circle183"
     cx="250.32466"
     cy="-29.954659"
     r="1.0573095"
     transform="rotate(15)" /><circle
     style="fill:#000000;fill-opacity:1;fill-rule:evenodd;stroke-width:0.971218;stroke-linecap:round;stroke-linejoin:round;paint-order:stroke fill markers"
     id="circle184"
     cx="245.07941"
     cy="-33.135605"
     r="1.0573095"
     transform="rotate(15)" /><circle
     style="fill:#000000;fill-opacity:1;fill-rule:evenodd;stroke-width:0.971218;stroke-linecap:round;stroke-linejoin:round;paint-order:stroke fill markers"
     id="circle185"
     cx="245.85049"
     cy="-29.734566"
     r="1.0573095"
     transform="rotate(15)" /><circle
     style="fill:#000000;fill-opacity:1;fill-rule:evenodd;stroke-width:0.971218;stroke-linecap:round;stroke-linejoin:round;paint-order:stroke fill markers"
     id="circle186"
     cx="238.05061"
     cy="-35.843094"
     r="1.0573095"
     transform="rotate(15)" /><circle
     style="fill:#000000;fill-opacity:1;fill-rule:evenodd;stroke-width:0.971218;stroke-linecap:round;stroke-linejoin:round;paint-order:stroke fill markers"
     id="circle187"
     cx="242.16217"
     cy="-34.159203"
     r="1.0573095"
     transform="rotate(15)" /><circle
     style="fill:#000000;fill-opacity:1;fill-rule:evenodd;stroke-width:0.971218;stroke-linecap:round;stroke-linejoin:round;paint-order:stroke fill markers"
     id="circle188"
     cx="238.05061"
     cy="-31.955172"
     r="1.0573095"
     transform="rotate(15)" /><circle
     style="fill:#000000;fill-opacity:1;fill-rule:evenodd;stroke-width:0.971218;stroke-linecap:round;stroke-linejoin:round;paint-order:stroke fill markers"
     id="circle189"
     cx="243.06912"
     cy="-31.371761"
     r="1.0573095"
     transform="rotate(15)" /><circle
     style="fill:#000000;fill-opacity:1;fill-rule:evenodd;stroke-width:0.971218;stroke-linecap:round;stroke-linejoin:round;paint-order:stroke fill markers"
     id="circle190"
     cx="252.39168"
     cy="-35.346283"
     r="1.0573095"
     transform="rotate(15)" /><circle
     style="fill:#000000;fill-opacity:1;fill-rule:evenodd;stroke-width:0.971218;stroke-linecap:round;stroke-linejoin:round;paint-order:stroke fill markers"
     id="circle191"
     cx="238.93507"
     cy="-29.054359"
     r="1.0573095"
     transform="rotate(15)" /><circle
     style="fill:#000000;fill-opacity:1;fill-rule:evenodd;stroke-width:0.971218;stroke-linecap:round;stroke-linejoin:round;paint-order:stroke fill markers"
     id="circle192"
     cx="246.77994"
     cy="-26.546911"
     r="1.0573095"
     transform="rotate(15)" /><circle
     style="fill:#000000;fill-opacity:1;fill-rule:evenodd;stroke-width:0.971218;stroke-linecap:round;stroke-linejoin:round;paint-order:stroke fill markers"
     id="circle194"
     cx="242.01848"
     cy="-27.637257"
     r="1.0573095"
     transform="rotate(15)" /><circle
     style="fill:#000000;fill-opacity:1;fill-rule:evenodd;stroke-width:0.971218;stroke-linecap:round;stroke-linejoin:round;paint-order:stroke fill markers"
     id="circle195"
     cx="252.5392"
     cy="-31.661823"
     r="1.0573095"
     transform="rotate(15)" /><circle
     style="fill:#000000;fill-opacity:1;fill-rule:evenodd;stroke-width:0.971218;stroke-linecap:round;stroke-linejoin:round;paint-order:stroke fill markers"
     id="circle196"
     cx="249.36105"
     cy="-27.573929"
     r="1.0573095"
     transform="rotate(15)" /><path
     d="m 215.06679,55.344965 c 4.15638,-3.341174 4.11551,-6.4588 5.48343,-10.204463 -6.44981,2.155535 -11.1298,4.529912 -12.75155,10.187198 z"
     style="fill:#009925;fill-rule:evenodd;stroke-width:0.971218px"
     id="path268" /><g
     id="g222"
     style="stroke-width:2.25281"
     transform="matrix(-0.08226033,0.4231927,-0.4231927,-0.08226033,257.1692,-73.092945)"><path
       style="fill:#ffd209;fill-opacity:1;stroke-width:2.25281"
       d="m 284.72302,36.48091 c 2.79449,-2.03802 4.89695,-5.169835 3.18201,-8.703064 -2.3076,0.403076 -5.38066,3.905861 -3.83655,6.763577 0.3773,0.494525 -0.41259,3.918428 0.65454,1.939487 z"
       id="path196" /><path
       style="fill:#ffd209;fill-opacity:1;stroke-width:2.25281"
       d="m 273.52566,35.184236 c 0.72347,-2.106197 0.73623,-4.388223 -1.30441,-5.832254 -1.33378,-1.629961 -3.16856,-2.299768 -2.92782,0.537786 -1.11506,3.484374 2.29224,4.730151 3.87656,7.052187 0.46117,1.146705 0.15439,-1.835821 0.35567,-1.757719 z"
       id="path197" /><path
       style="fill:#ffd209;fill-opacity:1;stroke-width:2.25281"
       d="m 268.16872,44.360591 c -0.49934,-3.139401 -5.82501,-11.338674 -9.62043,-11.383098 -1.32122,3.217327 6.59981,10.876605 9.6377,11.501154 l -0.0168,-0.118056 z"
       id="path198" /><path
       style="fill:#ffd209;fill-opacity:1;stroke-width:2.25281"
       d="m 290.16951,44.600924 c 3.01397,-0.630974 10.60928,-8.280017 10.03209,-11.682516 -3.05436,0.214708 -10.43957,7.858935 -10.52989,11.010641 -0.30685,0.787523 -0.50325,1.561357 0.4978,0.671875 z"
       id="path199" /><path
       style="fill:#ffd310;fill-opacity:1;stroke-width:2.25281"
       d="m 276.37815,41.470341 c -2.87758,-3.839875 -3.0064,-9.232733 -0.80077,-13.435195 1.4967,-2.347145 1.92517,-5.906966 3.75076,-7.687505 1.6299,3.240502 2.92927,6.687872 4.20424,10.092974 0.82532,3.505975 0.1534,7.232989 -1.19738,10.519763 -2.78707,1.19137 -0.41273,-3.925805 -1.44267,-5.462322 -0.55107,6.287222 -1.32883,2.238528 -1.25954,3.557589 0.57093,1.822589 -1.32517,3.147867 -1.20402,0.588815 -0.0674,-1.253517 -1.28012,-4.208241 -1.02773,-1.159757 -0.28263,0.827371 0.66588,3.52881 -1.02289,2.985638 z"
       id="path200" /><path
       style="fill:#ffdd55;stroke-width:2.25281"
       d="m 270.3133,43.514031 c 1.89846,-1.289881 -1.26338,-2.512234 0.96046,-2.141262 1.11937,0.970969 1.86059,2.842018 2.27016,-0.909178 0.0146,-4.744422 -3.94959,-8.000773 -7.64299,-10.264824 -1.51351,-1.450577 -3.13485,-1.675571 -2.17864,0.891914 0.89474,4.22636 1.29321,9.222434 5.17958,11.909945 0.45338,0.100677 0.92876,0.984912 1.41143,0.513405 z"
       id="path201" /><path
       style="fill:#ffdd55;stroke-width:2.25281"
       d="m 289.47847,43.16233 c 4.0877,-2.667216 4.36768,-7.950146 5.36252,-12.263956 1.04421,-4.256504 -3.66591,0.661222 -5.23977,1.472276 -2.851,2.093358 -5.1118,5.520201 -4.48638,9.184542 2.01738,1.446317 1.79874,-3.313951 3.37781,-1.657754 -0.40615,1.327448 -2.82526,4.787298 0.98582,3.264892 z"
       id="path202" /><path
       style="fill:#ffd310;fill-opacity:1;stroke-width:2.25281"
       d="m 296.00373,50.63946 c 4.47732,-0.546834 7.87204,-3.950819 9.91793,-7.762288 0.45933,-1.698185 4.39397,-4.348744 2.84349,-5.226541 -3.74987,0.60607 -7.59418,0.954715 -11.23232,2.089311 -2.72952,1.388879 -6.51395,3.693565 -6.94957,6.773188 1.93684,-0.287811 2.75798,-1.431333 5.3364,-1.546084 -0.52796,2.39192 -5.02664,3.676295 -5.40268,5.278637 1.33199,-0.690845 7.79209,-3.563163 4.46701,-1.344902 -3.12919,0.984014 -1.59387,2.900226 1.01974,1.738669 z"
       id="path203" /><path
       style="fill:#ffd310;fill-opacity:1;stroke-width:2.25281"
       d="m 265.60104,50.728911 c 0.6196,-1.310682 -5.47943,-2.938187 -2.52819,-3.245064 1.29518,0.829675 5.53812,1.722163 2.13085,-0.13748 -1.06108,-0.858682 -1.73798,-1.245898 -0.78501,-1.974043 2.32631,0.590871 1.55361,0.330234 3.3217,1.359262 0.71103,-2.39964 -3.16078,-4.144838 -4.59068,-5.886069 -3.56894,-2.371021 -8.0388,-2.263565 -12.11054,-3.038174 -4.3199,-0.78464 1.13367,3.415798 1.56642,5.073231 2.01118,3.490164 4.91111,6.842147 9.08157,7.573366 1.23853,0.220008 2.70564,0.713164 3.91388,0.274971 z"
       id="path204" /><path
       style="fill:#ffd209;fill-opacity:1;stroke-width:2.25281"
       d="m 304.45918,54.262902 c 2.3888,-0.474332 5.22014,-3.076868 1.25825,-3.58407 -2.12987,-1.229515 -5.99603,1.552893 -5.76262,2.49019 1.60282,-0.07882 2.98433,1.720779 4.50437,1.09388 z"
       id="path205" /><path
       style="fill:#ffd209;fill-opacity:1;stroke-width:2.25281"
       d="m 255.81821,52.664899 c 1.75752,-0.632634 3.71582,-0.728922 1.01314,-1.851894 -1.56904,-2.364804 -5.77018,-1.745159 -7.02906,0.03256 1.49803,1.517848 3.91501,3.194022 6.01592,1.819336 z"
       id="path206" /><path
       style="fill:#ffdd55;stroke-width:2.25281"
       d="m 302.60824,58.630724 c 2.19284,-0.769699 5.84989,-1.095799 7.05177,-2.495507 -4.18465,-2.487718 -9.19357,-5.712707 -14.21384,-3.650947 -2.88416,0.437116 -1.13144,2.836479 0.96727,2.14178 1.44211,-0.216292 3.88006,1.231205 0.55574,1.177536 -1.67751,-0.47362 -5.44787,0.700658 -1.99494,2.353932 2.36755,1.132253 5.1352,1.097564 7.634,0.473206 z"
       id="path207" /><path
       style="fill:#ffdd55;stroke-width:2.25281"
       d="m 261.60603,58.824272 c 2.382,0.251988 4.9724,-3.057736 1.17807,-2.82381 -1.40542,0.228921 -4.31335,0.108575 -0.54408,-0.501698 1.74926,0.231231 4.58083,-1.642528 1.09658,-2.922837 -4.89757,-2.111741 -9.883,0.825542 -13.99951,3.30772 -0.53108,1.534938 3.83303,1.711725 5.43059,2.45952 2.22909,0.450373 4.57861,1.119212 6.83835,0.481105 z"
       id="path208" /><path
       style="fill:#ffd209;fill-opacity:1;stroke-width:2.25281"
       d="m 303.89045,62.981823 c 2.30255,-0.807995 -2.64571,-4.884882 -4.60734,-3.714231 -1.86672,0.148134 -3.87974,0.38338 -1.30147,1.786154 1.2327,2.298083 3.5753,2.590019 5.90881,1.928077 z"
       id="path209" /><path
       style="fill:#ffd209;fill-opacity:1;stroke-width:2.25281"
       d="m 255.72046,62.842738 c 1.4096,-0.930508 2.48834,-2.28506 3.72902,-3.426199 -1.83337,0.449675 -3.656,-1.353071 -5.31728,-0.292848 -2.1846,0.93412 -4.69564,4.404038 -0.51067,3.803906 0.69968,0.01277 1.40636,0.03949 2.09893,-0.08486 z"
       id="path210" /><path
       style="fill:#ffd310;fill-opacity:1;stroke-width:2.25281"
       d="m 309.57759,72.925338 c -1.64261,-2.878893 -4.02649,-5.347148 -6.05296,-7.981607 -2.59857,-2.951489 -6.5963,-4.360669 -10.42959,-4.662494 -1.16016,1.784084 1.90495,1.04322 2.75478,2.704562 3.45566,2.871147 -2.17472,1.088535 -3.42932,0.03863 -2.94752,-0.787931 5.42872,4.688041 0.63067,2.865223 -1.01616,-0.788896 -4.04139,-2.351686 -2.40159,0.184509 2.27891,3.51652 6.09522,6.094474 10.38423,6.080881 2.83371,0.315374 5.72252,0.634961 8.54378,0.7703 z"
       id="path211" /><path
       style="fill:#ffd310;fill-opacity:1;stroke-width:2.25281"
       d="m 250.6613,72.844805 c 4.82312,-1.011252 10.47397,0.07712 14.41663,-3.536328 1.11066,-0.826897 4.79016,-4.795685 2.25683,-4.523816 -1.20904,1.219195 -5.11666,2.443416 -2.10503,-0.04411 1.5826,-0.929091 2.3759,-2.847473 0.0134,-1.21469 -1.26376,0.489866 -1.89927,1.583579 -1.97588,0.100449 1.31584,-1.999195 2.31107,-1.316879 2.44086,-3.201238 -2.87282,-0.157092 -5.95431,1.011817 -8.43885,2.51886 -3.21413,2.457238 -5.35812,6.025146 -7.88902,9.133219 -1.23316,1.39377 0.585,0.855947 1.28109,0.767654 z"
       id="path212" /><path
       style="fill:#ffd209;fill-opacity:1;stroke-width:2.25281"
       d="m 299.86682,78.295622 c 0.31203,-3.203107 -7.84768,-11.251176 -10.91433,-11.831309 -1.28593,-0.362384 6.69062,8.286404 6.3845,9.526725 1.15755,1.183415 2.80614,2.394717 4.52983,2.304584 z"
       id="path213" /><path
       style="fill:#ffd209;fill-opacity:1;stroke-width:2.25281"
       d="m 259.95529,78.132772 c 3.10859,-0.138774 7.01952,-8.172352 6.29242,-9.020974 -3.02835,0.57159 -7.78788,5.790539 -7.62763,8.974508 -0.22788,0.684055 1.12876,-0.0014 1.33521,0.04647 z"
       id="path214" /><path
       style="fill:#ffdd55;stroke-width:2.25281"
       d="m 294.47917,80.832067 c -0.35352,-4.573718 -0.63229,-10.149889 -4.93676,-12.895612 -2.31156,-2.446265 -3.01511,0.741891 -1.26636,2.229178 0.84891,0.975105 2.31638,3.975152 0.44443,1.337738 -0.68503,-1.727318 -4.86014,-4.604565 -4.2303,-0.771272 0.80077,4.752066 5.20433,7.36149 8.56879,10.251962 0.5613,0.362738 1.82782,1.421582 1.4202,-0.151994 z"
       id="path215" /><path
       style="fill:#ffdd55;stroke-width:2.25281"
       d="m 264.72794,81.469247 c 3.19288,-2.45732 6.89369,-4.800389 8.66147,-8.563746 1.44675,-1.801385 0.45591,-6.090849 -1.56673,-2.861682 -0.57634,1.513413 -1.62077,2.19935 0.2117,-1.204677 1.26905,-1.463132 0.31832,-3.382181 -2.88564,-1.073139 -4.47121,2.768159 -4.59161,8.464299 -5.10665,13.127971 -0.10482,0.63942 -0.25077,1.373703 0.68585,0.575273 z"
       id="path216" /><path
       style="fill:#ffd209;fill-opacity:1;stroke-width:2.25281"
       d="m 289.60425,83.022989 c 1.63895,-3.377553 -0.54035,-6.064771 -2.98636,-8.131842 -0.52551,1.610124 -1.66353,6.443783 1.43873,8.120577 0.50466,0.451373 1.44615,1.32732 1.54763,0.01126 z"
       id="path217" /><path
       style="fill:#ffd209;fill-opacity:1;stroke-width:2.25281"
       d="m 272.33666,81.571278 c 3.55288,-2.043034 2.43448,-5.517805 2.10298,-8.752423 -2.53196,2.36156 -5.11971,5.179524 -3.04075,8.880709 0.12646,0.562497 0.77904,-0.0051 0.93777,-0.128286 z"
       id="path218" /><path
       style="fill:#ffd310;fill-opacity:1;stroke-width:2.25281"
       d="m 279.76977,89.148382 c 1.6779,-3.980279 4.19534,-7.771025 4.72923,-12.124822 -0.0897,-2.438307 -0.43758,-6.655311 -2.74444,-7.520015 -0.0208,1.243423 -0.12975,6.669704 -1.19176,2.980629 0.20175,-1.832472 -1.34427,-4.117784 -1.11848,-1.231725 -0.22123,1.335505 0.53018,3.437994 -0.82501,2.690565 -0.69495,-2.333354 -0.66928,-2.68218 -1.23683,-4.547607 -2.27103,1.789772 -2.39767,5.730813 -2.50992,8.548861 0.34092,3.887511 2.38366,7.343419 3.53327,11.024969 0.32482,0.962192 0.91517,1.677703 1.36394,0.179145 z"
       id="path219" /><path
       id="path220"
       style="fill:#ffcd00;fill-rule:evenodd;stroke-width:2.25281;stroke-linecap:round;stroke-linejoin:round;paint-order:stroke fill markers"
       d="M 294.09739,55.179192 A 14.866833,14.866833 0 0 1 279.23056,70.046024 14.866833,14.866833 0 0 1 264.36373,55.179192 14.866833,14.866833 0 0 1 279.23056,40.312359 14.866833,14.866833 0 0 1 294.09739,55.179192 Z" /><path
       id="path221"
       style="fill:#e9be00;fill-opacity:1;fill-rule:evenodd;stroke-width:2.25281;stroke-linecap:round;stroke-linejoin:round;paint-order:stroke fill markers"
       d="m 291.97354,55.17919 a 12.743,12.743 0 0 1 -12.74299,12.742999 12.743,12.743 0 0 1 -12.743,-12.742999 12.743,12.743 0 0 1 12.743,-12.743 12.743,12.743 0 0 1 12.74299,12.743 z" /><path
       id="path222"
       style="fill:#947800;fill-opacity:1;fill-rule:evenodd;stroke-width:2.2528;stroke-linecap:round;stroke-linejoin:round;paint-order:stroke fill markers"
       d="M 290.59618,55.179191 A 11.365635,11.365635 0 0 1 279.23055,66.544824 11.365635,11.365635 0 0 1 267.86492,55.179191 11.365635,11.365635 0 0 1 279.23055,43.813555 11.365635,11.365635 0 0 1 290.59618,55.179191 Z" /></g><circle
     style="fill:#000000;fill-opacity:1;fill-rule:evenodd;stroke-width:0.971216;stroke-linecap:round;stroke-linejoin:round;paint-order:stroke fill markers"
     id="circle222"
     cx="-1.1011091"
     cy="-218.56001"
     r="0.55534714"
     transform="rotate(101)" /><circle
     style="fill:#000000;fill-opacity:1;fill-rule:evenodd;stroke-width:0.971216;stroke-linecap:round;stroke-linejoin:round;paint-order:stroke fill markers"
     id="circle223"
     cx="-2.9629567"
     cy="-217.61076"
     r="0.55534714"
     transform="rotate(101)" /><circle
     style="fill:#000000;fill-opacity:1;fill-rule:evenodd;stroke-width:0.971216;stroke-linecap:round;stroke-linejoin:round;paint-order:stroke fill markers"
     id="circle224"
     cx="-0.92246962"
     cy="-216.32182"
     r="0.55534714"
     transform="rotate(101)" /><circle
     style="fill:#000000;fill-opacity:1;fill-rule:evenodd;stroke-width:0.971216;stroke-linecap:round;stroke-linejoin:round;paint-order:stroke fill markers"
     id="circle225"
     cx="-2.9629567"
     cy="-215.61075"
     r="0.55534714"
     transform="rotate(101)" /><circle
     style="fill:#000000;fill-opacity:1;fill-rule:evenodd;stroke-width:0.971216;stroke-linecap:round;stroke-linejoin:round;paint-order:stroke fill markers"
     id="circle226"
     cx="1.8926088"
     cy="-218.11342"
     r="0.55534714"
     transform="rotate(101)" /><circle
     style="fill:#000000;fill-opacity:1;fill-rule:evenodd;stroke-width:0.971216;stroke-linecap:round;stroke-linejoin:round;paint-order:stroke fill markers"
     id="circle227"
     cx="0.44758657"
     cy="-217.61076"
     r="0.55534714"
     transform="rotate(101)" /><circle
     style="fill:#000000;fill-opacity:1;fill-rule:evenodd;stroke-width:0.971216;stroke-linecap:round;stroke-linejoin:round;paint-order:stroke fill markers"
     id="circle228"
     cx="2.3094342"
     cy="-216.56"
     r="0.55534714"
     transform="rotate(101)" /><circle
     style="fill:#000000;fill-opacity:1;fill-rule:evenodd;stroke-width:0.971216;stroke-linecap:round;stroke-linejoin:round;paint-order:stroke fill markers"
     id="circle229"
     cx="0.44758657"
     cy="-215.61075"
     r="0.55534714"
     transform="rotate(101)" /><circle
     style="fill:#000000;fill-opacity:1;fill-rule:evenodd;stroke-width:0.971216;stroke-linecap:round;stroke-linejoin:round;paint-order:stroke fill markers"
     id="circle230"
     cx="2.3094342"
     cy="-214.51788"
     r="0.55534714"
     transform="rotate(101)" /><circle
     style="fill:#000000;fill-opacity:1;fill-rule:evenodd;stroke-width:0.971216;stroke-linecap:round;stroke-linejoin:round;paint-order:stroke fill markers"
     id="circle231"
     cx="0.74531901"
     cy="-213.92592"
     r="0.55534714"
     transform="rotate(101)" /><circle
     style="fill:#000000;fill-opacity:1;fill-rule:evenodd;stroke-width:0.971216;stroke-linecap:round;stroke-linejoin:round;paint-order:stroke fill markers"
     id="circle232"
     cx="2.3094342"
     cy="-212.51788"
     r="0.55534714"
     transform="rotate(101)" /><circle
     style="fill:#000000;fill-opacity:1;fill-rule:evenodd;stroke-width:0.971216;stroke-linecap:round;stroke-linejoin:round;paint-order:stroke fill markers"
     id="circle233"
     cx="-0.44561088"
     cy="-214.18866"
     r="0.55534714"
     transform="rotate(101)" /><circle
     style="fill:#000000;fill-opacity:1;fill-rule:evenodd;stroke-width:0.971216;stroke-linecap:round;stroke-linejoin:round;paint-order:stroke fill markers"
     id="circle234"
     cx="-0.040599976"
     cy="-212.40228"
     r="0.55534714"
     transform="rotate(101)" /><circle
     style="fill:#000000;fill-opacity:1;fill-rule:evenodd;stroke-width:0.971216;stroke-linecap:round;stroke-linejoin:round;paint-order:stroke fill markers"
     id="circle235"
     cx="-4.137454"
     cy="-215.61075"
     r="0.55534714"
     transform="rotate(101)" /><circle
     style="fill:#000000;fill-opacity:1;fill-rule:evenodd;stroke-width:0.971216;stroke-linecap:round;stroke-linejoin:round;paint-order:stroke fill markers"
     id="circle236"
     cx="-1.977874"
     cy="-214.7263"
     r="0.55534714"
     transform="rotate(101)" /><circle
     style="fill:#000000;fill-opacity:1;fill-rule:evenodd;stroke-width:0.971216;stroke-linecap:round;stroke-linejoin:round;paint-order:stroke fill markers"
     id="circle237"
     cx="-4.137454"
     cy="-213.56863"
     r="0.55534714"
     transform="rotate(101)" /><circle
     style="fill:#000000;fill-opacity:1;fill-rule:evenodd;stroke-width:0.971216;stroke-linecap:round;stroke-linejoin:round;paint-order:stroke fill markers"
     id="circle238"
     cx="-1.501502"
     cy="-213.26221"
     r="0.55534714"
     transform="rotate(101)" /><circle
     style="fill:#000000;fill-opacity:1;fill-rule:evenodd;stroke-width:0.971216;stroke-linecap:round;stroke-linejoin:round;paint-order:stroke fill markers"
     id="circle239"
     cx="3.3951249"
     cy="-215.34981"
     r="0.55534714"
     transform="rotate(101)" /><circle
     style="fill:#000000;fill-opacity:1;fill-rule:evenodd;stroke-width:0.971216;stroke-linecap:round;stroke-linejoin:round;paint-order:stroke fill markers"
     id="circle240"
     cx="-3.6728966"
     cy="-212.045"
     r="0.55534714"
     transform="rotate(101)" /><circle
     style="fill:#000000;fill-opacity:1;fill-rule:evenodd;stroke-width:0.971216;stroke-linecap:round;stroke-linejoin:round;paint-order:stroke fill markers"
     id="circle241"
     cx="0.44758657"
     cy="-210.72798"
     r="0.55534714"
     transform="rotate(101)" /><circle
     style="fill:#000000;fill-opacity:1;fill-rule:evenodd;stroke-width:0.971216;stroke-linecap:round;stroke-linejoin:round;paint-order:stroke fill markers"
     id="circle242"
     cx="-2.0533531"
     cy="-211.30067"
     r="0.55534714"
     transform="rotate(101)" /><circle
     style="fill:#000000;fill-opacity:1;fill-rule:evenodd;stroke-width:0.971216;stroke-linecap:round;stroke-linejoin:round;paint-order:stroke fill markers"
     id="circle243"
     cx="3.4726169"
     cy="-213.41457"
     r="0.55534714"
     transform="rotate(101)" /><circle
     style="fill:#000000;fill-opacity:1;fill-rule:evenodd;stroke-width:0.971216;stroke-linecap:round;stroke-linejoin:round;paint-order:stroke fill markers"
     id="circle244"
     cx="1.8033022"
     cy="-211.26741"
     r="0.55534714"
     transform="rotate(101)" /></g><path
   id="path7"
   style="fill:#000000;fill-rule:evenodd;stroke:none;stroke-width:0.999996px;stroke-linecap:butt;stroke-linejoin:miter;stroke-opacity:1"
   d="m 46.614682,63.873132 c -2.91263,0 -4.183657,0.08363 -5.39386,1.564788 -2.224057,2.721991 -6.279495,9.960845 -6.32183,9.948728 0,0 -6.88379,0.19494 -9.40692,0.507452 -1.227479,0.152035 -1.370706,1.979237 -1.370706,1.979237 l 25.2044,0.0991 v 0.0047 l 0.560013,-0.0023 0.557983,0.0023 v -0.0047 l 25.2044,-0.0991 c 0,0 -0.143227,-1.827202 -1.370706,-1.979237 -2.52313,-0.312512 -9.406919,-0.507452 -9.406919,-0.507452 -0.04233,0.01209 -4.097763,-7.226737 -6.32182,-9.948728 -1.561488,-1.911085 -3.257403,-1.526092 -8.416293,-1.554679 -17.748199,-0.09835 15.354146,-0.0101 -3.517742,-0.0101 z"
   sodipodi:nodetypes="sscscccccccscsss" /><g
   id="g12"
   transform="matrix(1.4460631,0,0,1.1741965,-22.303158,-11.564145)"
   style="stroke-width:0.767425"><path
     d="M 81.312863,83.450423 H 18.687138 c 0.174087,1.04778 1.20179,1.34298 1.20179,1.34298 h 30.017233 0.189399 30.015513 c 0,0 1.027703,-0.2952 1.20179,-1.34298 z"
     style="fill:#000000;fill-rule:evenodd;stroke-width:0.153485"
     id="path10" /><path
     d="m 21.698507,77.803043 c -0.521106,0 -0.764677,0.0625 -1.224172,0.97107 -0.45753,0.90468 -1.462586,2.89089 -1.733819,3.83782 h 62.51897 c -0.270933,-0.94693 -1.27457,-2.93314 -1.732091,-3.83782 -0.459496,-0.90858 -0.704794,-0.97107 -1.225901,-0.97107 z"
     style="fill:#000000;fill-rule:evenodd;stroke-width:0.153485"
     id="path11"
     sodipodi:nodetypes="csccscc" /></g></svg>
