<?xml version="1.0" encoding="UTF-8" standalone="no"?>
<svg
   xml:space="preserve"
   width="200"
   height="100"
   version="1.1"
   id="playlistBooster-btn-playBackward"
   xmlns="http://www.w3.org/2000/svg"
   xmlns:svg="http://www.w3.org/2000/svg"><defs
   id="defs1" />
 
<g
   id="g1"
   transform="matrix(-38.44766,0,0,38.44766,1128.9341,-1695.959)"
   style="stroke-width:0.0260092">
  
 <g
   id="g2"
   transform="translate(0.0220966,-0.00269492)"><g
     id="gPlayForward"
     transform="translate(-2.1653932)"
     fill="#000000"
     fill-opacity="1">
  
 <path
   d="m 26.700343,44.258619 c -8.44e-4,0.0014 -0.01643,2.294079 -0.01643,2.294079 0.03078,0.182834 0.198049,0.156099 0.346384,0.07041 l 1.872643,-1.081721 c 0.07767,-0.04486 0.07762,-0.224128 0,-0.269069 l -1.8319,-1.060685 c -0.188023,-0.108867 -0.373436,-0.09572 -0.365966,0.03915 1.66e-4,0.003 -0.0047,0.0052 -0.0047,0.0078 z"
   id="playForwardButton"
   fill="#000000"
   fill-opacity="1"
   style="stroke-width:0.0260092" /></g><path
     d="m 26.700343,44.258619 c -8.44e-4,0.0014 -0.01643,2.294079 -0.01643,2.294079 0.03078,0.182834 0.198049,0.156099 0.346384,0.07041 l 1.872643,-1.081721 c 0.07767,-0.04486 0.07762,-0.224128 0,-0.269069 l -1.8319,-1.060685 c -0.188023,-0.108867 -0.373436,-0.09572 -0.365966,0.03915 1.66e-4,0.003 -0.0047,0.0052 -0.0047,0.0078 z"
     id="path1"
     fill="#000000"
     fill-opacity="1" /></g></g></svg>
