<?xml version="1.0" encoding="UTF-8" standalone="no"?>
<svg
   xml:space="preserve"
   width="100"
   height="100"
   version="1.1"
   viewBox="0 0 100 100"
   id="playlistBooster-folder"
   xmlns="http://www.w3.org/2000/svg"
   xmlns:svg="http://www.w3.org/2000/svg"><defs
   id="defs1" />
 <g
   id="gFolder">
  <path
   id="folder"
   style="fill:#000000;stroke-width:1"
   d="m 8.2096354,15.937251 c -3.684821,0.106438 -6.9968662,3.13338 -7.43003115,6.794763 -0.1709921,2.31573 -0.0257476,4.647276 -0.073788,6.968977 0.0102781,15.646812 -0.0205506,31.294463 0.0154043,46.940751 0.32415335,3.498356 1.95496095,7.286179 6.98911725,7.407178 22.8074382,0.548192 45.5703492,0.138074 68.3903932,0.09509 4.11774,-0.236843 7.914385,-3.250229 9.309069,-7.114895 4.702822,-10.714497 14.108816,-32.143337 14.108816,-32.143337 0,0 0.20273,-5.873921 -4.981363,-6.928083 -1.898118,-0.386632 -3.854252,-0.118653 -5.776998,-0.198331 h -9.894951 c -0.07561,-2.023738 0.167122,-4.071066 -0.165596,-6.076995 -0.367485,-2.236629 -2.105443,-4.128988 -4.300043,-4.690885 -2.688714,-0.764734 -5.518014,-0.367954 -8.272157,-0.45606 -8.481703,0.01342 -16.96463,0.02054 -25.44561,-0.03853 -1.22374,-0.01177 -2.436757,-0.671863 -2.874357,-1.858813 -1.024182,-2.420396 -1.74762,-5.173451 -3.913247,-6.87139 -2.054135,-1.711419 -4.853928,-1.92638 -7.4167,-1.837146 -6.08928,0.0052 -12.178846,-0.01033 -18.2679586,0.0077 z m 19.6115986,7.540403 c 0.876139,-0.106582 1.65057,0.460799 1.908636,1.286331 1.008783,2.506952 1.858707,5.281003 4.052359,7.038626 2.418538,2.046799 5.736731,2.362461 8.780149,2.267425 9.546183,0.0071 19.103427,-0.0041 28.648205,0.01675 0.0107,1.013254 0.06429,2.508487 0.10854,3.672583 -15.530279,0.01001 -31.061444,-0.02 -46.591169,0.01499 -4.116887,0.23809 -7.89594,3.160973 -9.289525,7.026324 -2.394836,5.454536 -4.78967,10.909067 -7.1845062,16.363599 0.012845,-12.491047 -0.025685,-24.986538 0.019255,-37.474809 0.044183,-0.319974 0.2080127,-0.292158 0.5480544,-0.264906 l 19.0000018,0.0531 z m 63.327073,21.74702 c -4.376802,9.955088 -8.732611,19.919969 -13.122537,29.868936 -0.644472,1.050353 -1.888095,1.702149 -3.124377,1.513472 H 9.6980758 C 14.092924,66.629608 18.437793,56.627196 22.863847,46.66529 c 0.659801,-1.009057 1.874281,-1.623052 3.083068,-1.440616 z" />
 </g>
</svg>
