<?xml version="1.0" encoding="UTF-8" standalone="no"?>
<svg
   width="100"
   version="1.1"
   id="playlistBooster-svg-cloud"
   xml:space="preserve"
   viewBox=" 0 0  100 120 "
   height="100"
   xmlns="http://www.w3.org/2000/svg"
   xmlns:svg="http://www.w3.org/2000/svg"><defs
   id="defs1" />
   <g
   id="gCloud_base"
   transform="matrix(1.15798,0,0,1.15798,-32.449817,5.5588873)"
   style="stroke-width:0.863572"><path
     style="opacity:1;fill:#96acb0;fill-opacity:1;fill-rule:evenodd;stroke:none;stroke-width:0.863572px;stroke-linecap:butt;stroke-linejoin:miter;stroke-opacity:1"
     d="M 40.211245,27.468245 C 40.11319,7.9912671 58.348518,6.8337021 66.829956,11.043933 79.638456,-6.266762 101.6121,2.7280169 101.37765,26.335534 c 9.8066,1.013861 22.29825,30.861685 -5.097204,32.848622 -15.22452,0.401779 -33.83494,0.202847 -50.972001,0.283178 -12.382178,0.05804 -25.73426,-20.745228 -5.0972,-31.999089 z"
     id="path2" /><path
     style="opacity:1;fill:#bbcace;fill-opacity:1;fill-rule:evenodd;stroke:none;stroke-width:0.863572px;stroke-linecap:butt;stroke-linejoin:miter;stroke-opacity:1"
     d="M 40.211245,27.468245 C 39.412361,5.8300044 62.086914,7.7511957 66.829956,11.043933 80.354949,-6.5049209 99.99404,10.869564 94.249547,24.205587 104.05615,25.269412 111.96204,52.680125 84.566586,54.76498 69.342066,55.186559 60.84146,55.346412 43.70655,55.062113 30.82378,54.848365 21.17608,38.795849 40.211245,27.468245 Z"
     id="cloud_mid" /><path
     style="opacity:1;fill:#c9d4d8;fill-opacity:1;fill-rule:evenodd;stroke:none;stroke-width:0.863572px;stroke-linecap:butt;stroke-linejoin:miter;stroke-opacity:1"
     d="M 38.133368,28.800161 C 38.040643,12.452853 55.197343,11.588362 63.305065,15.015 76.094827,0.9777609 94.666323,14.593961 89.234104,25.261378 98.507613,26.112326 105.98373,48.038016 80.077516,49.705681 65.680615,50.042899 57.644142,49.875933 41.438665,49.943356 29.729592,49.992066 24.239047,37.732278 38.133368,28.800161 Z"
     id="cloud_front" /></g><g
   id="gCloud_flash"
   transform="matrix(1.1987139,0,0,1.1987139,-35.350128,-1.2298046)"
   style="stroke-width:0.834227"><path
     d="m 60.742187,59.466797 -9.486328,18.761719 14.087891,0.353515 -2.195313,18.759766 9.769532,-23.644531 -8.919922,0.07031 7.203125,-14.300781 z"
     id="cloud_flash_left"
     fill="#ffffe0"
     fill-opacity="1"
     style="stroke-width:0.834227" /><path
     d="M 71.201172,59.466797 63.998047,73.767578 72.917969,73.697266 63.148437,97.341797 84.8125,68.953125 75,68.742187 l 7.404297,-9.27539 z"
     id="cloud_flash_right"
     fill="#f9c50c"
     fill-opacity="1"
     style="stroke-width:0.834227" /></g><g
   id="gCloud_face"
   transform="matrix(1.7654591,0,0,1.7654591,125.218,-37.923869)"
   style="stroke-width:0.566424"><path
     id="path6"
     style="opacity:1;fill:#000000;fill-rule:evenodd;stroke-width:0.113284;stroke-linecap:round;stroke-linejoin:round;paint-order:stroke fill markers"
     d="m -53.097537,47.300167 a 2.43115,2.43115 0 0 1 -2.43115,2.43115 2.43115,2.43115 0 0 1 -2.431149,-2.43115 2.43115,2.43115 0 0 1 2.431149,-2.43115 2.43115,2.43115 0 0 1 2.43115,2.43115 z" /><path
     id="path7"
     style="opacity:1;fill:#000000;fill-rule:evenodd;stroke-width:0.113284;stroke-linecap:round;stroke-linejoin:round;paint-order:stroke fill markers"
     d="M -37.189609,47.56885 A 2.43115,2.43115 0 0 1 -39.620759,50 a 2.43115,2.43115 0 0 1 -2.431149,-2.43115 2.43115,2.43115 0 0 1 2.431149,-2.43115 2.43115,2.43115 0 0 1 2.43115,2.43115 z" /><path
     style="opacity:1;fill:#000000;fill-rule:evenodd;stroke:none;stroke-width:0.566424px;stroke-linecap:butt;stroke-linejoin:miter;stroke-opacity:1"
     d="m -44.263543,50.465526 -8.724004,-0.02934 c 3.599335,10.956959 13.365481,0.04495 8.724004,0.02934 z"
     id="path8" /><path
     id="path9"
     style="opacity:1;fill:#ff6600;fill-rule:evenodd;stroke-width:0.113284;stroke-linecap:round;stroke-linejoin:round;paint-order:stroke fill markers"
     d="m -45.43358,52.418283 a 2.138998,1.2527189 0 0 1 -2.138998,1.252718 2.138998,1.2527189 0 0 1 -2.138998,-1.252718 2.138998,1.2527189 0 0 1 2.138998,-1.25272 2.138998,1.2527189 0 0 1 2.138998,1.25272 z" /></g>
	   </svg>
