<?xml version="1.0" encoding="UTF-8" standalone="no"?>
<svg
   viewBox=" 0 0  100 100 "
   width="100"
   version="1.1"
   id="playlistBooster-twoFiles"
   heigth="100"
   xml:space="preserve"
   xmlns="http://www.w3.org/2000/svg"
   xmlns:svg="http://www.w3.org/2000/svg"><defs
   id="defs1" />
   <g
   id="gTwoFiles" /><path
   d="M 7.1468611,86.117708 H 78.919259 V 39.822844 c 0,-5.948785 -0.335714,-20.637469 -0.335714,-20.637469 0,0 -20.271354,-19.185364262547 -20.250168,-19.185375 L 7.1087378,0.02604462 C 7.568639,27.536721 7.1468611,86.117708 7.1468611,86.117708 M 52.769626,6.3566786 V 24.76307 H 71.686382 V 79.424474 H 14.379743 V 6.3566786 H 52.769626 M 85.595761,24.76307 V 92.81094 H 21.612615 v 7.189059 h 71.278647 c 0,0 -0.06262,-50.911067 -0.06262,-75.236929 H 85.59576 m -63.983146,9.48208 v 6.135464 h 42.84089 V 34.24515 H 21.612615 m 0,15.059775 v 6.693233 H 64.453504 V 49.304925 H 21.612615 m 0,15.617544 v 6.135463 h 42.840889 v -6.135463 z"
   id="twoFiles"
   fill="#828292"
   fill-opacity="1"
   style="fill:#000000;stroke-width:1" />
</svg>
