<?xml version="1.0" encoding="UTF-8" standalone="no"?>
<!-- Created with Inkscape (http://www.inkscape.org/) -->

<svg
   width="100"
   height="100"
   version="1.1"
   xml:space="preserve"
   id="playlistBooster-led-on"
   viewBox="0 0 100 100"
   sodipodi:docname="playlistBooster-led-on.svg"
   inkscape:version="1.3.2 (091e20e, 2023-11-25, custom)"
   xmlns:inkscape="http://www.inkscape.org/namespaces/inkscape"
   xmlns:sodipodi="http://sodipodi.sourceforge.net/DTD/sodipodi-0.dtd"
   xmlns="http://www.w3.org/2000/svg"
   xmlns:svg="http://www.w3.org/2000/svg"><sodipodi:namedview
   id="namedview1"
   pagecolor="#ffffff"
   bordercolor="#111111"
   borderopacity="1"
   inkscape:showpageshadow="0"
   inkscape:pageopacity="0"
   inkscape:pagecheckerboard="1"
   inkscape:deskcolor="#d1d1d1"
   inkscape:zoom="3.62"
   inkscape:cx="50"
   inkscape:cy="50"
   inkscape:current-layer="playlistBooster-led-on" />
   <defs
   id="defs1">   
  
 </defs>
<circle
   style="fill:#008000;fill-rule:evenodd;stroke:#000000;stroke-width:4;stroke-linecap:round;stroke-linejoin:round;paint-order:stroke fill markers;stroke-dasharray:none"
   id="path1"
   cx="50.38073"
   cy="50.375332"
   r="46.553513" /><g
   transform="matrix(0.00875439,0,0,-0.00875439,-6.6410582,105.96275)"
   fill="#000000"
   stroke="none"
   id="g2"
   style="stroke-width:11.4229"><g
     id="g7"
     transform="translate(75.026079,-1.1996836e-4)"
     style="stroke-width:11.4229"><path
       d="M 7626.4866,9467.3027 V 8375.0959 A 2292.2078,2292.2078 0 0 0 8730.7301,6419.38 2292.2078,2292.2078 0 0 0 6438.4875,4127.1375 2292.2078,2292.2078 0 0 0 4146.245,6419.38 2292.2078,2292.2078 0 0 0 5250.4885,8375.0959 V 9467.3027 A 3279.4239,3279.4239 0 0 1 3159.1087,6419.38 3279.4239,3279.4239 0 0 1 6438.4875,3139.8757 3279.4239,3279.4239 0 0 1 9717.8664,6419.38 3279.4239,3279.4239 0 0 1 7626.4866,9467.3027 Z"
       id="bar"
       fill="#000000"
       fill-opacity="1"
       style="stroke-width:11.4229" /><rect
       id="openCircle"
       width="908.97479"
       height="3259.6482"
       x="5984"
       y="-9559.459"
       transform="scale(1,-1)"
       rx="454.4874"
       ry="353.14587"
       fill="#000000"
       fill-opacity="1"
       style="stroke-width:11.4229" /></g></g></svg>
