<?xml version="1.0" encoding="UTF-8" standalone="no"?>
<svg
   version="1.0"
   width="100px"
   height="100px"
   id="playlistBooster-btn-reset"
   xml:space="preserve"
   xmlns:xlink="http://www.w3.org/1999/xlink"
   xmlns="http://www.w3.org/2000/svg"
   xmlns:svg="http://www.w3.org/2000/svg"><defs
     id="defs2"><linearGradient
       id="linearGradient238"><stop
         style="stop-color:#d97b78;stop-opacity:1;"
         offset="0"
         id="stop238" /><stop
         style="stop-color:#ca4030;stop-opacity:1"
         offset="1"
         id="stop239" /></linearGradient><linearGradient
       id="linearGradient2314"><stop
         style="stop-color:#365b1b;stop-opacity:1;"
         offset="0"
         id="stop2315" /><stop
         style="stop-color:#6ab335;stop-opacity:0;"
         offset="1"
         id="stop2316" /></linearGradient><linearGradient
       id="linearGradient2312"><stop
         style="stop-color:#35631b;stop-opacity:1;"
         offset="0"
         id="stop2313" /><stop
         style="stop-color:#539b2a;stop-opacity:0;"
         offset="1"
         id="stop2314" /></linearGradient><linearGradient
       id="linearGradient2311"><stop
         style="stop-color:#2b5216;stop-opacity:1;"
         offset="0"
         id="stop2311" /><stop
         style="stop-color:#5aaa2d;stop-opacity:0;"
         offset="1"
         id="stop2312" /></linearGradient><linearGradient
       id="linearGradient2308"><stop
         style="stop-color:#223e10;stop-opacity:1;"
         offset="0"
         id="stop2309" /><stop
         style="stop-color:#5dae2f;stop-opacity:0;"
         offset="1"
         id="stop2310" /></linearGradient><linearGradient
       id="linearGradient2307"><stop
         style="stop-color:#2f5018;stop-opacity:1;"
         offset="0"
         id="stop2307" /><stop
         style="stop-color:#66ad33;stop-opacity:0;"
         offset="1"
         id="stop2308" /></linearGradient><linearGradient
       id="linearGradient2303"><stop
         style="stop-color:#315018;stop-opacity:1;"
         offset="0"
         id="stop2304" /><stop
         style="stop-color:#66ad33;stop-opacity:0;"
         offset="1"
         id="stop2305" /></linearGradient><linearGradient
       id="linearGradient2301"><stop
         style="stop-color:#264213;stop-opacity:1;"
         offset="0"
         id="stop2302" /><stop
         style="stop-color:#6bb636;stop-opacity:0;"
         offset="1"
         id="stop2303" /></linearGradient><linearGradient
       id="linearGradient2300"><stop
         style="stop-color:#1e3310;stop-opacity:1;"
         offset="0"
         id="stop2300" /><stop
         style="stop-color:#69b637;stop-opacity:0;"
         offset="1"
         id="stop2301" /></linearGradient><linearGradient
       id="linearGradient2275"><stop
         style="stop-color:#725904;stop-opacity:1;"
         offset="0"
         id="stop2276" /><stop
         style="stop-color:#f9d55a;stop-opacity:1"
         offset="1"
         id="stop2277" /></linearGradient><linearGradient
       id="linearGradient2273"><stop
         style="stop-color:#634d04;stop-opacity:1;"
         offset="0"
         id="stop2274" /><stop
         style="stop-color:#f9d55a;stop-opacity:1"
         offset="1"
         id="stop2275" /></linearGradient><linearGradient
       id="linearGradient2271"><stop
         style="stop-color:#554303;stop-opacity:1;"
         offset="0"
         id="stop2272" /><stop
         style="stop-color:#f9d55a;stop-opacity:1"
         offset="1"
         id="stop2273" /></linearGradient><linearGradient
       id="linearGradient2269"><stop
         style="stop-color:#312702;stop-opacity:1;"
         offset="0"
         id="stop2270" /><stop
         style="stop-color:#f9d55a;stop-opacity:1"
         offset="1"
         id="stop2271" /></linearGradient><linearGradient
       id="linearGradient2267"><stop
         style="stop-color:#2f2601;stop-opacity:1;"
         offset="0"
         id="stop2268" /><stop
         style="stop-color:#f9d55a;stop-opacity:1"
         offset="1"
         id="stop2269" /></linearGradient><linearGradient
       id="linearGradient2263"><stop
         style="stop-color:#1a1401;stop-opacity:1;"
         offset="0"
         id="stop2264" /><stop
         style="stop-color:#f9d55a;stop-opacity:1"
         offset="1"
         id="stop2265" /></linearGradient><linearGradient
       id="linearGradient2262"><stop
         style="stop-color:#4f3d04;stop-opacity:1;"
         offset="0"
         id="stop2262" /><stop
         style="stop-color:#f9d55a;stop-opacity:1"
         offset="1"
         id="stop2263" /></linearGradient><linearGradient
       id="linearGradient1507"><stop
         style="stop-color:#3eaca1;stop-opacity:1;"
         offset="0"
         id="stop1507" /><stop
         style="stop-color:#dbf4f9;stop-opacity:1;"
         offset="0.55292308"
         id="stop1509" /><stop
         style="stop-color:#a3a3a3;stop-opacity:1"
         offset="1"
         id="stop1508" /></linearGradient><linearGradient
       id="linearGradient617"><stop
         style="stop-color:#a49a65;stop-opacity:1;"
         offset="0"
         id="stop617" /><stop
         style="stop-color:#d4ceb2;stop-opacity:1"
         offset="1"
         id="stop618" /></linearGradient><linearGradient
       id="linearGradient40"><stop
         style="stop-color:#d5ba8c;stop-opacity:1"
         offset="0"
         id="stop40" /><stop
         style="stop-color:#a60c0c;stop-opacity:0;"
         offset="1"
         id="stop41" /></linearGradient><filter
       style="color-interpolation-filters:sRGB"
       id="filter1499"
       x="-0.84625306"
       y="-0.84625306"
       width="2.6925061"
       height="2.6925061"><feGaussianBlur
         stdDeviation="20.445035"
         id="feGaussianBlur1499" /></filter><filter
       style="color-interpolation-filters:sRGB"
       id="filter2263"
       x="-0.096989532"
       y="-0.10741594"
       width="1.1939791"
       height="1.2148319"><feGaussianBlur
         stdDeviation="1.7001391"
         id="feGaussianBlur2263" /></filter><filter
       style="color-interpolation-filters:sRGB"
       id="filter2277"
       x="-0.028159222"
       y="-0.020545078"
       width="1.0563184"
       height="1.0410902"><feGaussianBlur
         stdDeviation="0.35379497"
         id="feGaussianBlur2277" /></filter><filter
       style="color-interpolation-filters:sRGB"
       id="filter2278"
       x="-0.053930867"
       y="-0.067623728"
       width="1.1078617"
       height="1.1352475"><feGaussianBlur
         stdDeviation="0.86267433"
         id="feGaussianBlur2278" /></filter><filter
       style="color-interpolation-filters:sRGB"
       id="filter2279"
       x="-0.079473674"
       y="-0.15679475"
       width="1.1589473"
       height="1.3135895"><feGaussianBlur
         stdDeviation="1.7055088"
         id="feGaussianBlur2279" /></filter><linearGradient
       xlink:href="#linearGradient1507"
       id="linearGradient539"
       gradientUnits="userSpaceOnUse"
       x1="-381.83765"
       y1="-195.16147"
       x2="-376.18082"
       y2="246.07317"
       gradientTransform="matrix(0.21569633,0,0,0.21569633,128.93808,42.492316)" /><linearGradient
       xlink:href="#linearGradient40"
       id="linearGradient540"
       gradientUnits="userSpaceOnUse"
       gradientTransform="matrix(0.04816239,0,0,0.04816239,24.511675,70.630328)"
       x1="786.61121"
       y1="244.99998"
       x2="983.03979"
       y2="245.71429" /><linearGradient
       xlink:href="#linearGradient617"
       id="linearGradient541"
       gradientUnits="userSpaceOnUse"
       gradientTransform="matrix(0.05510635,0,0,0.05666203,-6.5117673,88.150318)"
       x1="1468.827"
       y1="325.10431"
       x2="1051.4634"
       y2="285.56458" /><linearGradient
       xlink:href="#linearGradient238"
       id="linearGradient542"
       gradientUnits="userSpaceOnUse"
       x1="-23.185163"
       y1="1088.0214"
       x2="-209.99905"
       y2="1089.6842" /><radialGradient
       xlink:href="#linearGradient2301"
       id="radialGradient542"
       gradientUnits="userSpaceOnUse"
       gradientTransform="matrix(-0.09278262,-0.01170036,0.01508157,-0.11959526,-19.266369,161.52118)"
       cx="-369.96619"
       cy="699.16382"
       fx="-369.96619"
       fy="699.16382"
       r="69.0995" /><radialGradient
       xlink:href="#linearGradient2300"
       id="radialGradient543"
       gradientUnits="userSpaceOnUse"
       gradientTransform="matrix(-0.02671474,-0.06162529,0.09687253,-0.04199452,-52.872484,82.788198)"
       cx="-398.09567"
       cy="678.323"
       fx="-398.09567"
       fy="678.323"
       r="71.579823" /><radialGradient
       xlink:href="#linearGradient2312"
       id="radialGradient544"
       gradientUnits="userSpaceOnUse"
       gradientTransform="matrix(1.3414132,0.79663114,-0.36763321,0.61904189,335.5201,444.72236)"
       cx="-236.24313"
       cy="714.03101"
       fx="-236.24313"
       fy="714.03101"
       r="62.133489" /><radialGradient
       xlink:href="#linearGradient2314"
       id="radialGradient545"
       gradientUnits="userSpaceOnUse"
       gradientTransform="matrix(1.654806,-0.29418815,0.13049315,0.73402293,88.808144,92.462292)"
       cx="-261.91089"
       cy="633.6936"
       fx="-261.91089"
       fy="633.6936"
       r="74.511196" /><radialGradient
       xlink:href="#linearGradient2307"
       id="radialGradient546"
       gradientUnits="userSpaceOnUse"
       gradientTransform="matrix(-1.7238261,-0.35277724,0.3360735,-1.6422043,-1200.925,1688.3199)"
       cx="-356.5296"
       cy="683.78033"
       fx="-356.5296"
       fy="683.78033"
       r="62.055246" /><radialGradient
       xlink:href="#linearGradient2303"
       id="radialGradient547"
       gradientUnits="userSpaceOnUse"
       gradientTransform="matrix(-1.4010863,1.1763711,-0.51086746,-0.60845546,-515.07729,1531.0223)"
       cx="-360.03998"
       cy="683.95386"
       fx="-360.03998"
       fy="683.95386"
       r="62.055246" /><radialGradient
       xlink:href="#linearGradient2311"
       id="radialGradient548"
       gradientUnits="userSpaceOnUse"
       gradientTransform="matrix(1.723355,0.6822553,-0.34622124,0.87454377,440.50846,261.99256)"
       cx="-242.96628"
       cy="764.70636"
       fx="-242.96628"
       fy="764.70636"
       r="43.011659" /><radialGradient
       xlink:href="#linearGradient2308"
       id="radialGradient549"
       gradientUnits="userSpaceOnUse"
       gradientTransform="matrix(1.7876168,1.3090734,-0.48955969,0.66852256,581.76505,631.71415)"
       cx="-301.53925"
       cy="703.21899"
       fx="-301.53925"
       fy="703.21899"
       r="65.089065" /><radialGradient
       xlink:href="#linearGradient2275"
       id="radialGradient550"
       gradientUnits="userSpaceOnUse"
       gradientTransform="matrix(1,0,0,1.3401666,282,166.70258)"
       cx="-353.05997"
       cy="353.97726"
       fx="-353.05997"
       fy="353.97726"
       r="20.448054" /><radialGradient
       xlink:href="#linearGradient2263"
       id="radialGradient551"
       gradientUnits="userSpaceOnUse"
       gradientTransform="matrix(0.0288795,-0.99958291,1.5255113,0.04407439,-1350.2637,229.22968)"
       cx="-392.22116"
       cy="812.57867"
       fx="-392.22116"
       fy="812.57867"
       r="15.076906" /><radialGradient
       xlink:href="#linearGradient2267"
       id="radialGradient552"
       gradientUnits="userSpaceOnUse"
       gradientTransform="matrix(0.52487327,-0.85118039,0.9946228,0.61332583,-632.10998,-183.16924)"
       cx="-377.38968"
       cy="730.10638"
       fx="-377.38968"
       fy="730.10638"
       r="19.195115" /><radialGradient
       xlink:href="#linearGradient2269"
       id="radialGradient553"
       gradientUnits="userSpaceOnUse"
       gradientTransform="matrix(1,0,0,0.50686476,264,212.52497)"
       cx="-281.29419"
       cy="740.47913"
       fx="-281.29419"
       fy="740.47913"
       r="25.752057" /><radialGradient
       xlink:href="#linearGradient2271"
       id="radialGradient554"
       gradientUnits="userSpaceOnUse"
       gradientTransform="matrix(1,0,0,1.699434,264,-677.40867)"
       cx="-214.88225"
       cy="767.38739"
       fx="-214.88225"
       fy="767.38739"
       r="13.605345" /><radialGradient
       xlink:href="#linearGradient2273"
       id="radialGradient555"
       gradientUnits="userSpaceOnUse"
       gradientTransform="matrix(1,0,0,1.106604,264,-228.04493)"
       cx="-255.73318"
       cy="797.76461"
       fx="-255.73318"
       fy="797.76461"
       r="18.767759" /><radialGradient
       xlink:href="#linearGradient2262"
       id="radialGradient556"
       gradientUnits="userSpaceOnUse"
       gradientTransform="matrix(0.49116669,-0.8710656,0.70086418,0.39519542,-496.54427,94.50415)"
       cx="-303.66702"
       cy="855.75781"
       fx="-303.66702"
       fy="855.75781"
       r="21.034918" /></defs><g
     id="g1"><g
       transform="matrix(0.0068253,0,0,-0.0068253,22.064875,62.437798)"
       fill="#000000"
       stroke="none"
       id="g20"
       style="stroke-width:19.5352"><g
         id="g566"
         transform="translate(-425.30959,425.30959)"><path
           style="fill:#000000;stroke-width:19.5352"
           d="m 9277.5756,3941.9926 c 4.433,133.4137 169.861,326.234 341.371,397.8952 80.848,33.7804 146.996,72.8158 146.996,86.7453 0,67.195 -351.196,640.633 -587.702,959.6098 -654.978,883.3685 -1599.323,1612.5723 -2574.966,1988.3349 -714.64,275.2391 -1204.381,356.5621 -2131.155,353.8845 -974.369,-2.8148 -1470.973,-90.8588 -2219.722,-393.5374 C 1111.2476,6873.6196 73.52656,5976.5957 -566.48744,4898.2327 c -290.279,-489.0917 -289.014,-482.8049 -112.093,-556.7271 176.412,-73.7094 341.856,-266.5144 342.819,-399.513 1.655,-228.7071 75.375,-201.1105 191.281,71.6049 270.421,636.2764 846.998,1379.091 1436.66404,1850.8829 1000.6,800.5785 2047.023,1131.7079 3416.784,1081.2044 853.461,-31.4675 1351.494,-154.0432 2029.22,-499.4305 987.835,-503.4283 1866.547,-1412.8365 2322.166,-2403.2886 150.867,-327.9641 208.785,-354.8862 217.222,-100.9731 z"
           id="path566" /><path
           style="fill:#000000;stroke-width:19.5352"
           d="m 10633.362,300.88128 c 104.187,50.4361 250.273,168.5211 324.635,262.4103 250.874,316.7544 270.89,446.80312 255.546,1660.28392 -15.654,1237.8126 -6.036,1209.1609 -382.518,1614.1519 -191.095,205.5659 -411.378,253.0099 -802.987,253.3429 -473.7654,0.4028 -437.3984,160.2795 -439.9534,-1934.12 -1.616,-1324.99762 11.818,-1840.99972 49.103,-1885.92462 86.053,-103.6874 762.1704,-83.4241 996.1744,29.8556 z"
           id="path565" /><path
           style="fill:#000000;stroke-width:19.5352"
           d="m -895.78102,831.38971 c 62.111,23.8344 250.53758,-363.27683 250.53758,1299.96769 0,2145.2886 10.54678,1704.9613 -481.17916,1704.5271 -518.919,-0.4582 -616.4332,-9.1692 -871.1692,-419.4149 -148.192,-238.6577 -73.2918,-761.995 -65.5178,-1358.8032 6.573,-504.6601 152.2872,-849.1676 351.5112,-1278.30558 78.702,-151.2464 -88.3296,-116.85155 79.7704,-190.38595 134.37,-58.7807 608.443,193.44864 736.04698,242.41484 z"
           id="path564" /><path
           style="fill:#000000;stroke-width:19.5352"
           d="m 5554.8506,2828.1137 c -180.442,180.4423 -207.971,867.8292 -44.733,1116.9624 88.066,134.4052 325.948,139.7663 443.392,9.9927 91.826,-101.4666 141.274,-614.4042 87.079,-903.2891 -57.821,-308.2132 -292.931,-416.4732 -485.738,-223.666 z"
           id="path563" /><path
           style="fill:#000000;stroke-width:19.5352"
           d="m 2995.7886,2828.4943 c -124.143,124.1431 -178.382,414.9412 -142.407,763.5073 33.829,327.7719 122.665,455.1995 317.339,455.1995 243.174,0 308.806,-143.3511 308.806,-674.4762 0,-422.8597 -3.693,-439.0436 -123.776,-542.4223 -155.172,-133.5851 -227.82,-133.9504 -359.962,-1.8083 z"
           id="path562" /><path
           style="fill:#000000;stroke-width:19.5352"
           d="m 3821.4056,-408.51235 c -952.038,134.13689 -1875.371,588.03913 -2376.157,1168.09773 -193.694,224.3555 -212.478,235.4041 -298.174,175.3807 -118.535,-83.0253 -224.81604,-81.2279 -311.30804,5.2644 -113.987,113.98672 -82.553,189.22782 203.51704,487.13922 304.7,317.3137 435.755,376.9479 567.125,258.0597 113.566,-102.7757 109.079,-163.2514 -23.835,-321.2103 -60.658,-72.0885 -110.288,-151.0265 -110.288,-175.4188 0,-72.4256 465.611,-476.02602 744.871,-645.66682 701.204,-425.95875 1728.695,-617.432889 2749.288,-512.332469 1011.986,104.213859 1659.541,366.298169 2226.486,901.122069 l 343.115,323.67702 -142.334,162.1101 c -160.484,182.7808 -158.909,177.9859 -96.668,294.2856 87.822,164.0972 251.533,104.8168 576.235,-208.6564 319.177,-308.1395 356.872,-394.9168 223.842,-515.30742 -107.736,-97.4993 -180.158,-92.014 -302.489,22.91052 -56.157,52.756 -102.103,73.7395 -102.103,46.6295 0,-85.73922 -492.664,-585.44842 -747.629,-758.31932 -474.373,-321.634689 -942.604,-520.3576 -1524.304,-646.9326 -375.255,-81.65341 -1222.63,-113.88735 -1599.19,-60.83243 z"
           id="path561" /><path
           d="m -920.21312,4167.1353 c 310.459,2.2368 283.0648,-104.4165 285.3011,-1937.0142 1.6159,-1324.99645 -11.9352,-1840.86694 -49.2194,-1885.79184 -86.0531,-103.6873 -762.11748,-83.519 -996.12198,29.7606 -104.187,50.4361 -250.429,168.5192 -324.791,262.4083 -250.874,316.75409 -270.884,446.81844 -255.54,1660.29804 15.654,1237.8114 6.113,1209.2357 382.595,1614.2262 191.095,205.5657 411.355,252.9183 802.9639,253.2513 59.2205,0.05 110.46105,2.542 154.81238,2.8616 z"
           style="fill:#000000;fill-rule:evenodd;stroke-width:146.514px"
           id="path552" /></g></g><path
       style="opacity:1;fill:#000000;fill-rule:evenodd;stroke:none;stroke-width:1px;stroke-linecap:butt;stroke-linejoin:miter;stroke-opacity:1"
       d="m 38.190857,13.805042 c 15.330789,-9.5419498 42.790677,-1.767704 30.987882,18.656313 -0.0767,-4.802212 -1.808934,-5.805029 -3.276539,-7.415151 0.869782,2.367277 0.643738,4.734555 -0.182033,7.101835 -3.171726,-5.430452 -9.333189,-19.286965 -27.52931,-18.342997 z"
       id="path11" /></g></svg>
