<?xml version="1.0" encoding="UTF-8" standalone="no"?>
<svg
   viewBox=" 0 0  100 100 "
   width="100"
   version="1.1"
   id="playlistBooster-twoFiles"
   heigth="100"
   xml:space="preserve"
   xmlns="http://www.w3.org/2000/svg"
   xmlns:svg="http://www.w3.org/2000/svg"><defs
   id="defs1" />
   <g
   id="gTwoFiles" />
<g
   id="g11"
   style="fill:#000000;stroke-width:1.01234"
   transform="matrix(0.98780698,0,0,0.98780698,143.21228,0.69260329)"><g
     id="g17"
     style="fill:#000000;stroke-width:1.01234"
     transform="translate(-245.0125)"><g
       id="g14"
       transform="translate(100.76272)"
       style="fill:#000000;stroke-width:1.01234"><g
         id="g2"
         style="fill:#000000;stroke-width:0.998443"
         transform="matrix(1.013844,0,0,1.0140017,-180.26955,-39.132408)"><path
           id="path1"
           style="fill:#000000;fill-rule:evenodd;stroke-width:0.998441"
           d="m 193.10561,37.900562 c -4.68101,0 -8.56275,4.173086 -8.56275,8.854107 v 67.898351 c 0,4.68101 3.88174,8.56275 8.56275,8.56275 h 53.81901 c 4.68103,0 8.60811,-3.06349 8.60811,-7.74451 V 60.792135 c 0,-4.667408 -1.63285,-7.132037 -4.50294,-9.721199 0,0 -7.43211,-7.807453 -7.53864,-7.891058 -3.32845,-3.14638 -4.77333,-5.279316 -9.6898,-5.279316 z m 42.98124,7.180986 c 4.02626,4.426907 8.20953,8.284031 12.37307,12.376558 l -0.24251,57.194914 c -0.004,0.77954 -0.51325,1.29278 -1.29279,1.29278 h -53.81901 c -0.77954,0 -1.29278,-0.51324 -1.29278,-1.29278 V 46.754669 c 0,-0.779537 0.51477,-1.632857 1.29278,-1.584144 z" /><path
           d="m 229.7969,47.448123 v 8.815603 c 0,3.738447 3.09825,6.8367 6.8367,6.8367 3.30414,-0.0086 8.49905,-4.5e-4 8.49905,-0.01184 0,0 1.42118,-0.885662 1.42118,-2.705421 -0.0353,-1.731421 -1.40395,-2.92967 -1.40395,-2.92967 h -8.51631 c -0.70773,0 -1.18977,-0.482042 -1.18977,-1.18977 v -8.789611 c 0,0 -0.78769,-1.06266 -2.69578,-1.097995 -1.51941,-0.03534 -2.35056,0.214971 -2.95112,1.072 0,1e-6 0,4e-6 0,4e-6 z"
           style="fill:#000000;fill-opacity:1;fill-rule:evenodd;stroke-width:0.998441"
           id="path2" /></g><path
         d="m 85.497332,26.811509 c -0.09526,18.845783 -0.237566,63.934585 -0.237566,63.934585 -0.0046,0.89096 -0.531084,1.478515 -1.337891,1.478515 0,0 -48.037354,-0.03038 -60.201172,0 -1.55285,0.0039 -2.108088,2.601442 -2.108088,4.154296 0,1.552854 0.555258,4.162905 2.108088,4.154295 17.070069,-0.0946 60.201172,0 60.201172,0 4.84473,0 8.910156,-3.501473 8.910156,-8.851559 0,0 0.255851,-43.938653 0,-64.792238 -0.01725,-1.406309 -2.237939,-2.111248 -3.644273,-2.126333 -1.40686,-0.01509 -3.683314,0.641516 -3.690426,2.048439 z"
         style="fill:#000000;fill-rule:evenodd;stroke-width:1.01234"
         id="path11" /></g><g
       id="g16"
       style="fill:#000000;stroke-width:1.01234"><path
         d="m 166.36593,68.312559 c -0.0189,-0.77292 -0.0767,-3.3704 -1.31759,-3.38009 -11.34489,-0.0886 -32.83114,-0.009 -42.673,-0.01 -1.2478,-1.8e-4 -1.48251,2.41859 -1.46929,3.77387 0.0127,1.29765 0.28893,3.58309 1.47705,3.58355 11.90474,0.005 30.66345,-0.0188 42.70133,-0.0137 1.20075,0.0686 1.30665,-2.92237 1.2815,-3.95363 z"
         style="fill:#000000;fill-rule:evenodd;stroke-width:1.01233"
         id="path14" /><path
         d="m 166.36593,52.388288 c -0.0189,-0.77292 -0.0767,-3.3704 -1.31759,-3.38009 -11.34489,-0.0886 -32.83114,-0.009 -42.673,-0.01 -1.2478,-1.8e-4 -1.48251,2.41859 -1.46929,3.77387 0.0127,1.29765 0.28893,3.58309 1.47705,3.58355 11.90474,0.005 30.66345,-0.0188 42.70133,-0.0137 1.20075,0.0686 1.30665,-2.92237 1.2815,-3.95363 z"
         style="fill:#000000;fill-rule:evenodd;stroke-width:1.01233"
         id="path15" /><path
         d="m 166.36593,36.464017 c -0.0189,-0.77292 -0.0767,-3.3704 -1.31759,-3.38009 -11.34489,-0.0886 -32.83114,-0.009 -42.673,-0.01 -1.2478,-1.8e-4 -1.48251,2.41859 -1.46929,3.77387 0.0127,1.29765 0.28893,3.58309 1.47705,3.58355 11.90474,0.005 30.66345,-0.0188 42.70133,-0.0137 1.20075,0.0686 1.30665,-2.92237 1.2815,-3.95363 z"
         style="fill:#000000;fill-rule:evenodd;stroke-width:1.01233"
         id="path16" /></g></g></g></svg>
