<?xml version="1.0" encoding="UTF-8" standalone="no"?>
<svg
   version="1.0"
   width="100px"
   height="100px"
   id="playlistBooster-btn-kill"
   xmlns="http://www.w3.org/2000/svg"
   xmlns:svg="http://www.w3.org/2000/svg">
  <defs
     id="defs2" />
  <g
     transform="matrix(0.01444808,0,0,-0.01444808,-44.107766,141.7405)"
     fill="#000000"
     stroke="none"
     id="g2"
     style="stroke-width:6.92134">
    <g
       id="g7"
       transform="translate(75.026079,-1.1996836e-4)">
      <path
         d="M 7626.4866,9467.3027 V 8375.0959 A 2292.2078,2292.2078 0 0 0 8730.7301,6419.38 2292.2078,2292.2078 0 0 0 6438.4875,4127.1375 2292.2078,2292.2078 0 0 0 4146.245,6419.38 2292.2078,2292.2078 0 0 0 5250.4885,8375.0959 V 9467.3027 A 3279.4239,3279.4239 0 0 1 3159.1087,6419.38 3279.4239,3279.4239 0 0 1 6438.4875,3139.8757 3279.4239,3279.4239 0 0 1 9717.8664,6419.38 3279.4239,3279.4239 0 0 1 7626.4866,9467.3027 Z"
         id="bar"
         fill="#000000"
         fill-opacity="1" />
      <rect
         id="openCircle"
         width="908.97479"
         height="3259.6482"
         x="5984"
         y="-9559.459"
         transform="scale(1,-1)"
         rx="454.4874"
         ry="353.14587"
         fill="#000000"
         fill-opacity="1" />
    </g>
  </g>
</svg>
