<?xml version="1.0" encoding="UTF-8" standalone="no"?>
<svg
   xml:space="preserve"
   width="100"
   height="100"
   version="1.1"
   viewBox="0 0 100 100"
   id="playlistBooster-shuffle-om"
   xmlns="http://www.w3.org/2000/svg"
   xmlns:svg="http://www.w3.org/2000/svg"><defs
   id="defs1" />
 <path
   id="path4"
   style="opacity:1;fill:#000000;fill-rule:evenodd;stroke:none;stroke-width:1px;stroke-linecap:butt;stroke-linejoin:miter;stroke-opacity:1"
   d="m 79.343384,20.649501 -0.0021,9.63796 -11.016544,-0.04447 c -7.458054,-0.0978 -10.209181,1.602835 -19.680197,8.879941 l -2.122453,1.960742 5.346562,5.346562 c 1.82941,-1.827599 3.323241,-3.27521 3.998298,-3.757753 3.343754,-2.538081 5.402208,-4.59734 11.505719,-4.614821 l 11.982794,-0.103093 -0.01415,9.532847 19.453802,-13.470504 z m -78.1386269,9.577318 0.1051119,7.523592 16.844195,-0.01819 c 4.877765,0.417243 7.47547,2.284424 9.884568,4.123623 l 20.60599,19.023248 c 9.471025,7.277111 12.222135,8.977743 19.680196,8.87994 l 11.016545,-0.04447 0.0021,9.635939 19.45178,-13.365393 -19.453801,-13.470504 0.01415,9.532848 -11.982764,-0.105112 c -6.103597,-0.01748 -8.162042,-2.074716 -11.5058,-4.6128 C 53.463654,55.611561 41.8842,42.967423 34.375672,36.497153 29.517736,32.800408 23.326189,30.31443 19.59531,30.299589 Z m 32.3098049,22.865898 -5.47593,5.05346 c -2.409098,1.839201 -5.006803,3.706382 -9.884568,4.123625 L 1.309869,62.251608 1.2047571,69.775201 19.59531,69.702431 c 3.730879,-0.01484 9.922426,-2.50082 14.780362,-6.197564 1.520899,-1.310595 3.2257,-2.905369 4.970583,-4.580456 z" />
</svg>
