<?xml version="1.0" encoding="UTF-8" standalone="no"?>
<svg
   width="100px"
   height="100px"
   fill="none"
   version="1.1"
   id="playlistBooster-copyright"
   xmlns="http://www.w3.org/2000/svg"
   xmlns:svg="http://www.w3.org/2000/svg">
  <defs
     id="defs2" />
  <path
     d="m 59.349724,41.993659 7.262948,-7.262946 C 62.990415,31.4907 58.20801,29.520806 52.965337,29.520806 c -11.310248,0 -20.479092,9.168843 -20.479092,20.479196 0,11.310147 9.168844,20.479193 20.479092,20.479193 5.689632,0 10.837078,-2.320294 14.548419,-6.065937 l -6.720247,-6.720247 -1.072086,0.0021 c -1.803193,1.584066 -4.167516,2.544541 -6.756086,2.544541 -5.654817,0 -10.239597,-4.584269 -10.239597,-10.239598 0,-5.65533 4.58478,-10.239598 10.239597,-10.239598 2.414497,0 4.633931,0.835551 6.384388,2.233256 z"
     fill="#000000"
     id="inner"
     style="stroke-width:0.999999" />
  <path
     d="m 50.000001,3.9218126 c 25.44847,0 46.078187,20.6299204 46.078187,46.0781874 0,25.44847 -20.629717,46.078187 -46.078187,46.078187 C 24.551734,96.078187 3.9218123,75.44847 3.9218123,50 3.9218123,24.551733 24.551734,3.9218126 50.000001,3.9218126 Z m 0,10.2395964 c 19.793142,0 35.838589,16.0455 35.838589,35.838591 0,19.793142 -16.045447,35.83859 -35.838589,35.83859 C 30.20691,85.83859 14.161409,69.793142 14.161409,50 c 0,-19.793091 16.045501,-35.838591 35.838592,-35.838591 z"
     fill="#000000"
     id="outer"
     clip-rule="evenodd"
     fill-rule="evenodd" />
</svg>
