<?xml version="1.0" encoding="UTF-8" standalone="no"?>
<!-- Created with Inkscape (http://www.inkscape.org/) -->

<svg
   width="100"
   height="100"
   version="1.1"
   xml:space="preserve"
   id="video-screen"
   viewBox="0 0 100 100"
   sodipodi:docname="playlistBooster-video-screen-off.svg"
   inkscape:version="1.3.2 (091e20e, 2023-11-25, custom)"
   xmlns:inkscape="http://www.inkscape.org/namespaces/inkscape"
   xmlns:sodipodi="http://sodipodi.sourceforge.net/DTD/sodipodi-0.dtd"
   xmlns:xlink="http://www.w3.org/1999/xlink"
   xmlns="http://www.w3.org/2000/svg"
   xmlns:svg="http://www.w3.org/2000/svg"><sodipodi:namedview
   id="namedview1"
   pagecolor="#ffffff"
   bordercolor="#111111"
   borderopacity="1"
   inkscape:showpageshadow="0"
   inkscape:pageopacity="0"
   inkscape:pagecheckerboard="1"
   inkscape:deskcolor="#d1d1d1"
   inkscape:zoom="2.8284271"
   inkscape:cx="9.0156114"
   inkscape:cy="51.795572"
   inkscape:current-layer="video-screen"
   showguides="true"><sodipodi:guide
     position="191.22627,-10.130311"
     orientation="0,-1"
     id="guide5"
     inkscape:locked="false" /></sodipodi:namedview>
   <defs
   id="defs1">   
  
 <clipPath
   id="SVGID_14_">
		<use
   xlink:href="#SVGID_13_"
   style="overflow:visible"
   id="use9" />
	</clipPath><clipPath
   id="clipPath1">
		<use
   xlink:href="#SVGID_13_"
   style="overflow:visible"
   id="use1" />
	</clipPath><clipPath
   id="clipPath2">
		<use
   xlink:href="#SVGID_13_"
   style="overflow:visible"
   id="use2" />
	</clipPath><clipPath
   id="clipPath3">
		<use
   xlink:href="#SVGID_13_"
   style="overflow:visible"
   id="use3" />
	</clipPath><clipPath
   id="clipPath4">
		<use
   xlink:href="#SVGID_13_"
   style="overflow:visible"
   id="use4" />
	</clipPath><clipPath
   id="clipPath5">
		<use
   xlink:href="#SVGID_13_"
   style="overflow:visible"
   id="use5" />
	</clipPath><clipPath
   id="clipPath6">
		<use
   xlink:href="#SVGID_13_"
   style="overflow:visible"
   id="use6" />
	</clipPath><clipPath
   id="clipPath7">
		<use
   xlink:href="#SVGID_13_"
   style="overflow:visible"
   id="use7" />
	</clipPath><clipPath
   id="clipPath8">
		<use
   xlink:href="#SVGID_13_"
   style="overflow:visible"
   id="use8" />
	</clipPath><clipPath
   id="clipPath10">
		<use
   xlink:href="#SVGID_13_"
   style="overflow:visible"
   id="use10" />
	</clipPath><clipPath
   id="clipPath11">
		<use
   xlink:href="#SVGID_13_"
   style="overflow:visible"
   id="use11" />
	</clipPath><clipPath
   id="clipPath12">
		<use
   xlink:href="#SVGID_13_"
   style="overflow:visible"
   id="use12" />
	</clipPath><clipPath
   id="clipPath13">
		<use
   xlink:href="#SVGID_13_"
   style="overflow:visible"
   id="use13" />
	</clipPath><clipPath
   id="clipPath14">
		<use
   xlink:href="#SVGID_13_"
   style="overflow:visible"
   id="use14" />
	</clipPath><clipPath
   id="clipPath15">
		<use
   xlink:href="#SVGID_13_"
   style="overflow:visible"
   id="use15" />
	</clipPath><clipPath
   id="clipPath16">
		<use
   xlink:href="#SVGID_13_"
   style="overflow:visible"
   id="use16" />
	</clipPath><clipPath
   id="clipPath17">
		<use
   xlink:href="#SVGID_13_"
   style="overflow:visible"
   id="use17" />
	</clipPath><clipPath
   id="clipPath18">
		<use
   xlink:href="#SVGID_13_"
   style="overflow:visible"
   id="use18" />
	</clipPath><clipPath
   id="clipPath19">
		<use
   xlink:href="#SVGID_13_"
   style="overflow:visible"
   id="use19" />
	</clipPath><clipPath
   id="clipPath20">
		<use
   xlink:href="#SVGID_13_"
   style="overflow:visible"
   id="use20" />
	</clipPath><clipPath
   id="clipPath21">
		<use
   xlink:href="#SVGID_13_"
   style="overflow:visible"
   id="use21" />
	</clipPath><clipPath
   id="clipPath22">
		<use
   xlink:href="#SVGID_13_"
   style="overflow:visible"
   id="use22" />
	</clipPath><clipPath
   id="clipPath23">
		<use
   xlink:href="#SVGID_13_"
   style="overflow:visible"
   id="use23" />
	</clipPath><clipPath
   id="clipPath24">
		<use
   xlink:href="#SVGID_13_"
   style="overflow:visible"
   id="use24" />
	</clipPath><clipPath
   id="clipPath25">
		<use
   xlink:href="#SVGID_13_"
   style="overflow:visible"
   id="use25" />
	</clipPath><clipPath
   id="clipPath26">
		<use
   xlink:href="#SVGID_13_"
   style="overflow:visible"
   id="use26" />
	</clipPath><clipPath
   id="clipPath27">
		<use
   xlink:href="#SVGID_13_"
   style="overflow:visible"
   id="use27" />
	</clipPath><clipPath
   id="clipPath28">
		<use
   xlink:href="#SVGID_13_"
   style="overflow:visible"
   id="use28" />
	</clipPath><clipPath
   id="clipPath29">
		<use
   xlink:href="#SVGID_13_"
   style="overflow:visible"
   id="use29" />
	</clipPath><clipPath
   id="clipPath30">
		<use
   xlink:href="#SVGID_13_"
   style="overflow:visible"
   id="use30" />
	</clipPath><clipPath
   id="clipPath31">
		<use
   xlink:href="#SVGID_13_"
   style="overflow:visible"
   id="use31" />
	</clipPath><clipPath
   id="clipPath32">
		<use
   xlink:href="#SVGID_13_"
   style="overflow:visible"
   id="use32" />
	</clipPath><clipPath
   id="clipPath33">
		<use
   xlink:href="#SVGID_13_"
   style="overflow:visible"
   id="use33" />
	</clipPath><clipPath
   id="clipPath34">
		<use
   xlink:href="#SVGID_13_"
   style="overflow:visible"
   id="use34" />
	</clipPath><clipPath
   id="clipPath35">
		<use
   xlink:href="#SVGID_13_"
   style="overflow:visible"
   id="use35" />
	</clipPath><clipPath
   id="clipPath36">
		<use
   xlink:href="#SVGID_13_"
   style="overflow:visible"
   id="use36" />
	</clipPath><clipPath
   id="clipPath37">
		<use
   xlink:href="#SVGID_13_"
   style="overflow:visible"
   id="use37" />
	</clipPath><clipPath
   id="clipPath38">
		<use
   xlink:href="#SVGID_13_"
   style="overflow:visible"
   id="use38" />
	</clipPath><clipPath
   id="clipPath39">
		<use
   xlink:href="#SVGID_13_"
   style="overflow:visible"
   id="use39" />
	</clipPath><clipPath
   id="clipPath40">
		<use
   xlink:href="#SVGID_13_"
   style="overflow:visible"
   id="use40" />
	</clipPath><clipPath
   id="clipPath41">
		<use
   xlink:href="#SVGID_13_"
   style="overflow:visible"
   id="use41" />
	</clipPath><clipPath
   id="clipPath42">
		<use
   xlink:href="#SVGID_13_"
   style="overflow:visible"
   id="use42" />
	</clipPath><clipPath
   id="clipPath43">
		<use
   xlink:href="#SVGID_13_"
   style="overflow:visible"
   id="use43" />
	</clipPath><clipPath
   id="clipPath44">
		<use
   xlink:href="#SVGID_13_"
   style="overflow:visible"
   id="use44" />
	</clipPath><clipPath
   id="clipPath45">
		<use
   xlink:href="#SVGID_13_"
   style="overflow:visible"
   id="use45" />
	</clipPath><clipPath
   id="clipPath46">
		<use
   xlink:href="#SVGID_13_"
   style="overflow:visible"
   id="use46" />
	</clipPath><clipPath
   id="clipPath47">
		<use
   xlink:href="#SVGID_13_"
   style="overflow:visible"
   id="use47" />
	</clipPath><clipPath
   id="clipPath48">
		<use
   xlink:href="#SVGID_13_"
   style="overflow:visible"
   id="use48" />
	</clipPath><clipPath
   id="clipPath49">
		<use
   xlink:href="#SVGID_13_"
   style="overflow:visible"
   id="use49" />
	</clipPath><clipPath
   id="clipPath50">
		<use
   xlink:href="#SVGID_13_"
   style="overflow:visible"
   id="use50" />
	</clipPath><clipPath
   id="clipPath51">
		<use
   xlink:href="#SVGID_13_"
   style="overflow:visible"
   id="use51" />
	</clipPath><clipPath
   id="clipPath52">
		<use
   xlink:href="#SVGID_13_"
   style="overflow:visible"
   id="use52" />
	</clipPath><clipPath
   id="clipPath53">
		<use
   xlink:href="#SVGID_13_"
   style="overflow:visible"
   id="use53" />
	</clipPath><clipPath
   id="clipPath54">
		<use
   xlink:href="#SVGID_13_"
   style="overflow:visible"
   id="use54" />
	</clipPath><clipPath
   id="clipPath55">
		<use
   xlink:href="#SVGID_13_"
   style="overflow:visible"
   id="use55" />
	</clipPath><clipPath
   id="clipPath56">
		<use
   xlink:href="#SVGID_13_"
   style="overflow:visible"
   id="use56" />
	</clipPath><clipPath
   id="clipPath57">
		<use
   xlink:href="#SVGID_13_"
   style="overflow:visible"
   id="use57" />
	</clipPath><clipPath
   id="clipPath58">
		<use
   xlink:href="#SVGID_13_"
   style="overflow:visible"
   id="use58" />
	</clipPath><clipPath
   id="clipPath59">
		<use
   xlink:href="#SVGID_13_"
   style="overflow:visible"
   id="use59" />
	</clipPath><clipPath
   id="clipPath60">
		<use
   xlink:href="#SVGID_13_"
   style="overflow:visible"
   id="use60" />
	</clipPath><clipPath
   id="clipPath61">
		<use
   xlink:href="#SVGID_13_"
   style="overflow:visible"
   id="use61" />
	</clipPath><clipPath
   id="clipPath62">
		<use
   xlink:href="#SVGID_13_"
   style="overflow:visible"
   id="use62" />
	</clipPath><clipPath
   id="clipPath63">
		<use
   xlink:href="#SVGID_13_"
   style="overflow:visible"
   id="use63" />
	</clipPath><clipPath
   id="clipPath64">
		<use
   xlink:href="#SVGID_13_"
   style="overflow:visible"
   id="use64" />
	</clipPath><clipPath
   id="clipPath65">
		<use
   xlink:href="#SVGID_13_"
   style="overflow:visible"
   id="use65" />
	</clipPath><clipPath
   id="clipPath66">
		<use
   xlink:href="#SVGID_13_"
   style="overflow:visible"
   id="use66" />
	</clipPath><clipPath
   id="clipPath67">
		<use
   xlink:href="#SVGID_13_"
   style="overflow:visible"
   id="use67" />
	</clipPath><rect
   id="SVGID_13_"
   x="21.5"
   y="20.1"
   width="307"
   height="172.60001" /></defs>
<path
   id="rect1"
   style="fill:none;fill-rule:evenodd;stroke:#000000;stroke-width:4;stroke-dasharray:none"
   d="m 12.235044,2.7636953 h 75.52991 c 5.376668,0 9.705178,4.2964846 9.705178,9.6333757 v 40.735412 c 0,5.336887 -4.32851,9.633376 -9.705178,9.633376 h -75.52991 c -5.3766711,0 -9.7051787,-4.296489 -9.7051787,-9.633376 V 12.397071 c 0,-5.3368911 4.3285076,-9.6333757 9.7051787,-9.6333757 z" /><path
   id="rect2"
   style="fill:none;fill-rule:evenodd;stroke:#000000;stroke-width:4;stroke-dasharray:none"
   d="M 9.0340837,9.6446759 H 90.965917 V 55.884875 H 9.0340837 Z" /><path
   id="path1"
   style="fill:#800000;fill-rule:evenodd;stroke:none;stroke-width:1px;stroke-linecap:butt;stroke-linejoin:miter;stroke-opacity:1"
   d="m 181.82031,89.396484 c -2.81385,0 -4.04177,0.08079 -5.21093,1.511719 -2.14863,2.629677 -6.06653,9.623027 -6.10743,9.611327 0,0 -6.65033,0.18833 -9.08789,0.49024 -1.18585,0.14688 -1.32422,1.91211 -1.32422,1.91211 l 24.34961,0.0957 v 0.004 l 0.54102,-0.002 0.53906,0.002 v -0.004 l 24.34961,-0.0957 c 0,0 -0.13837,-1.76523 -1.32422,-1.91211 -2.43756,-0.30191 -9.08789,-0.49024 -9.08789,-0.49024 -0.0409,0.0117 -3.95879,-6.98165 -6.10742,-9.611327 -1.50853,-1.846271 -3.14693,-1.474336 -8.13086,-1.501953 -17.14628,-0.09502 14.83342,-0.0098 -3.39844,-0.0098 z"
   sodipodi:nodetypes="sscscccccccscsss" /><path
   style="fill:#000000;fill-rule:evenodd;stroke:none;stroke-width:0.2;stroke-linecap:butt;stroke-linejoin:miter;stroke-dasharray:none;stroke-opacity:1"
   d="m 241.33826,114.687 c -3.15115,-0.34401 -15.41817,-1.42985 -16.02205,-3.8894 -0.18457,-0.75173 3.80694,-1.04197 7.38513,-0.21669 3.10621,0.71642 8.63692,4.10608 8.63692,4.10608 z"
   id="path2"
   sodipodi:nodetypes="csscc" /><path
   style="fill:#ff0000;fill-rule:evenodd;stroke:none;stroke-width:0.2;stroke-linecap:butt;stroke-linejoin:miter;stroke-dasharray:none;stroke-opacity:1"
   d="m 225.71708,109.45451 c 0,0 5.81336,-2.9608 11.1632,-2.4529 6.77624,0.64331 11.82454,2.8901 11.76393,5.20616 -0.0368,1.40485 -2.13415,2.22545 -3.65433,2.10248 -9.14685,-0.73989 -6.87797,-5.70717 -19.2728,-4.85574 z"
   id="path3"
   sodipodi:nodetypes="csssc" /><path
   d="m 220.61133,111.18164 h -71.04102 c 0.19748,1.18857 1.36328,1.52344 1.36328,1.52344 h 34.05078 0.21485 34.04883 c 0,0 1.1658,-0.33487 1.36328,-1.52344 z"
   style="fill:#ff0000;fill-rule:evenodd;stroke-width:0.2"
   id="path6" /><path
   d="m 152.98633,104.77539 c -0.59113,0 -0.86743,0.0709 -1.38867,1.10156 -0.51901,1.02625 -1.65912,3.27935 -1.9668,4.35352 h 70.91992 c -0.30734,-1.07417 -1.44584,-3.32727 -1.96484,-4.35352 -0.52124,-1.03067 -0.7995,-1.10156 -1.39063,-1.10156 z"
   style="fill:#ff0000;fill-rule:evenodd;stroke-width:0.2"
   id="path5"
   sodipodi:nodetypes="csccscc" /><g
   id="g13"><path
     id="path7"
     style="fill:#000000;fill-rule:evenodd;stroke:none;stroke-width:0.999996px;stroke-linecap:butt;stroke-linejoin:miter;stroke-opacity:1"
     d="m 46.614682,63.873132 c -2.91263,0 -4.183657,0.08363 -5.39386,1.564788 -2.224057,2.721991 -6.279495,9.960845 -6.32183,9.948728 0,0 -6.88379,0.19494 -9.40692,0.507452 -1.227479,0.152035 -1.370706,1.979237 -1.370706,1.979237 l 25.2044,0.0991 v 0.0047 l 0.560013,-0.0023 0.557983,0.0023 v -0.0047 l 25.2044,-0.0991 c 0,0 -0.143227,-1.827202 -1.370706,-1.979237 -2.52313,-0.312512 -9.406919,-0.507452 -9.406919,-0.507452 -0.04233,0.01209 -4.097763,-7.226737 -6.32182,-9.948728 -1.561488,-1.911085 -3.257403,-1.526092 -8.416293,-1.554679 -17.748199,-0.09835 15.354146,-0.0101 -3.517742,-0.0101 z"
     sodipodi:nodetypes="sscscccccccscsss" /><g
     id="g12"
     transform="matrix(1.4460631,0,0,1.1741965,-22.303158,-11.564145)"
     style="stroke-width:0.767425"><path
       d="M 81.312863,83.450423 H 18.687138 c 0.174087,1.04778 1.20179,1.34298 1.20179,1.34298 h 30.017233 0.189399 30.015513 c 0,0 1.027703,-0.2952 1.20179,-1.34298 z"
       style="fill:#000000;fill-rule:evenodd;stroke-width:0.153485"
       id="path10" /><path
       d="m 21.698507,77.803043 c -0.521106,0 -0.764677,0.0625 -1.224172,0.97107 -0.45753,0.90468 -1.462586,2.89089 -1.733819,3.83782 h 62.51897 c -0.270933,-0.94693 -1.27457,-2.93314 -1.732091,-3.83782 -0.459496,-0.90858 -0.704794,-0.97107 -1.225901,-0.97107 z"
       style="fill:#000000;fill-rule:evenodd;stroke-width:0.153485"
       id="path11"
       sodipodi:nodetypes="csccscc" /></g></g><g
   id="g2"
   transform="matrix(1.2718838,0,0,1.2721661,-15.867524,-22.184243)"
   style="stroke-width:0.786148"><path
     id="path1-2"
     style="fill:none;fill-rule:evenodd;stroke:#000000;stroke-width:3.14459;stroke-linecap:round;stroke-linejoin:round;stroke-dasharray:none;paint-order:stroke fill markers"
     d="M 64.707822,43.193272 A 12.920446,12.821144 0 0 1 51.787376,56.014419 12.920446,12.821144 0 0 1 38.866929,43.193272 12.920446,12.821144 0 0 1 51.787376,30.372129 12.920446,12.821144 0 0 1 64.707822,43.193272 Z" /><path
     d="m 47.54579,37.941906 c -0.0038,0.496259 -0.07413,10.426805 -0.07413,10.426805 0.138875,0.830997 0.893567,0.709484 1.562832,0.32002 l 8.449086,-4.916524 c 0.350435,-0.203893 0.350209,-1.018683 0,-1.222944 L 49.218319,37.72835 c -0.381845,-0.22272 -1.66611,-0.313019 -1.672529,0.213556 z"
     id="path2-9"
     fill="#000000"
     fill-opacity="1"
     style="fill:#ff0000;stroke:#000000;stroke-width:2.35844;stroke-dasharray:none" /></g></svg>
