<?xml version="1.0" encoding="UTF-8" standalone="no"?>
<svg
   xml:space="preserve"
   width="100px"
   height="100px"
   version="1.1"
   viewBox="0 0 100 100"
   id="playlistBooster-btn-speaker"
   xmlns="http://www.w3.org/2000/svg"
   xmlns:svg="http://www.w3.org/2000/svg"><defs
   id="defs1" />
 
<g
   id="g4"
   transform="matrix(1.0507241,0,0,1.0507241,-3.58394,-2.1864985)"
   style="stroke-width:0.951725"><path
     style="fill:#31d2f7;fill-opacity:1;fill-rule:evenodd;stroke:none;stroke-width:0.951725px;stroke-linecap:butt;stroke-linejoin:miter;stroke-opacity:1"
     d="m 81.095957,15.618481 c 0,0 14.734847,15.374636 14.417059,33.84004 C 95.202766,67.485893 80.495245,83.4988 80.495245,83.4988 L 57.868473,61.873211 57.668236,37.244069 C 62.417575,32.540026 75.399937,21.452025 81.095957,15.618481 Z"
     id="path2" /><path
     id="rect2"
     style="fill:#757575;fill-opacity:1;fill-rule:evenodd;stroke-width:0.951718px"
     d="M 7.6788661,30.836487 H 30.002115 c 0.149636,0 0.2701,0.10529 0.2701,0.236076 v 37.773102 c 0,0.130786 -0.120464,0.236076 -0.2701,0.236076 H 7.6788661 c -0.1496353,0 -0.2700998,-0.10529 -0.2700998,-0.236076 V 31.072563 c 0,-0.130786 0.1204645,-0.236076 0.2700998,-0.236076 z" /><path
     style="fill:#cccccc;fill-opacity:1;fill-rule:evenodd;stroke:none;stroke-width:0.951725px;stroke-linecap:butt;stroke-linejoin:miter;stroke-opacity:1"
     d="m 30.272215,32.356488 0.0091,35.068514 18.071294,21.280438 7.079445,0.0708 0.212383,-77.732302 -7.6458,0.283178 z"
     id="path3" /><path
     style="fill:#757575;fill-opacity:1;fill-rule:evenodd;stroke:none;stroke-width:0.951725px;stroke-linecap:butt;stroke-linejoin:miter;stroke-opacity:1"
     d="m 48.879823,14.380905 0.676157,70.737727 c 1.237442,0.157496 2.701308,0.04548 4.055308,0.06419 V 14.151526 c -1.629583,0.03492 -3.544211,-0.155972 -4.731465,0.229379 z"
     id="path4" /><path
     style="fill:#000000;stroke-width:0.951725"
     d="m 36.51116,82.22319 -8.860637,-8.878913 -8.88805,-0.0025 c -7.535599,-0.002 -9.1962993,-0.190385 -10.9137793,-1.237705 -3.91618,-2.388078 -4.2224,-4.023217 -4.2224,-22.546554 0,-14.900449 0.12836,-16.921473 1.20179,-18.923005 2.07166,-3.862839 4.47025,-4.644437 14.2529763,-4.644437 h 8.569463 l 8.860637,-8.878913 8.860637,-8.8789122 h 7.408232 7.408232 V 20.227267 32.222284 L 70.353919,22.072497 80.519577,11.92271 l 1.44405,1.278832 c 3.0111,2.666591 9.299927,11.172994 11.521152,15.583757 7.932751,15.752342 6.088079,35.136438 -4.714418,49.539911 -2.728995,3.638696 -7.579127,8.830709 -8.249228,8.830709 -0.241759,0 -4.910267,-4.513447 -10.374461,-10.029883 l -9.934897,-10.029883 -0.01176,12.002975 -0.01176,12.002975 H 52.780029 45.371797 Z M 53.611288,49.667177 V 14.151526 h -2.804024 c -2.72884,0 -3.049991,0.246438 -11.977409,9.190974 l -8.55764,9.013988 -10.17792,0.358198 -9.562171,0.181211 -0.17633,16.442431 c -0.15952,14.874981 -0.0692,16.520803 0.94782,17.264553 0.76861,0.5621 3.947528,0.822121 10.050929,0.822121 h 8.926769 l 8.860637,8.878913 c 8.608722,8.626478 8.940367,8.878912 11.664988,8.878912 h 2.804351 z m 29.166397,26.247779 c 3.114652,-3.638771 6.669744,-10.576861 7.937472,-15.49071 1.324652,-5.134494 1.359405,-16.412015 0.06558,-21.280225 -1.348143,-5.072578 -5.07801,-12.288203 -8.159371,-15.784734 l -2.608218,-2.959637 -2.13232,2.097984 -2.132321,2.097985 2.39114,2.646706 c 4.291667,4.750363 7.215593,12.054446 8.055482,20.122911 0.782089,7.513202 -2.582696,18.138333 -7.80732,24.653521 l -2.365256,2.949511 1.742515,1.818794 c 0.958383,1.000336 1.960043,1.818793 2.225912,1.818793 0.265869,0 1.519888,-1.210905 2.786708,-2.690899 z m -8.200824,-8.80472 c 7.601991,-10.585584 7.550044,-24.806665 -0.127882,-35.009332 -1.151326,-1.529918 -2.370208,-2.79082 -2.708627,-2.802005 -0.792869,-0.02621 -3.659724,2.658093 -3.659724,3.426678 0,0.322814 0.731029,1.545363 1.62451,2.716777 3.298919,4.325106 4.541288,8.217767 4.55959,14.286366 0.01521,5.044372 -0.208478,6.110071 -2.080805,9.913308 -1.153818,2.343736 -2.703177,4.809152 -3.44302,5.478701 l -1.34517,1.217362 1.780891,1.85885 c 0.97949,1.022368 2.119293,1.85885 2.532895,1.85885 0.413602,0 1.703906,-1.3255 2.867342,-2.945555 z M 66.957438,56.917194 c 2.591111,-5.794325 1.2366,-15.085837 -2.721375,-18.667755 -1.10058,-0.996012 -1.305503,-0.93803 -3.023901,0.855591 l -1.843315,1.924007 1.549715,2.507492 c 1.13683,1.839429 1.549716,3.472798 1.549716,6.130648 0,2.657849 -0.412886,4.291218 -1.549716,6.130647 l -1.549715,2.507493 1.843315,1.924006 c 1.769955,1.847435 1.894761,1.878401 3.13598,0.778084 0.710966,-0.630258 1.885149,-2.470854 2.609296,-4.090213 z"
     id="path1" /></g></svg>
