<?xml version="1.0" encoding="UTF-8" standalone="no"?>
<svg
   viewBox=" 0 0  100 100 "
   width="100"
   version="1.1"
   id="playlistBooster-browser-idb"
   heigth="100"
   xml:space="preserve"
   xmlns="http://www.w3.org/2000/svg"
   xmlns:svg="http://www.w3.org/2000/svg"><defs
   id="defs1" />
   <g
   id="g5"
   transform="translate(-159.50637,-30.593772)"><g
     id="g31"
     transform="matrix(1.1194929,0,0,1.1194929,-30.850775,-9.5906951)"
     style="stroke-width:0.893262"><g
       id="g30"
       style="stroke-width:0.893262"><path
         d="m 193.10623,37.901397 c -4.68103,0 -8.56297,4.171419 -8.56297,8.852448 0.0773,1.331578 -0.20263,4.5583 0.13772,5.438646 1.39395,3.605583 5.58965,3.258742 6.97629,0 0.39615,-0.930988 0.13241,-4.006846 0.1552,-5.438646 0,-0.779537 0.51575,-1.63195 1.29376,-1.583237 l 42.98097,-0.08948 c 4.02628,4.426917 8.20893,8.284606 12.37247,12.377141 l -0.24161,57.194001 c -0.004,0.77954 -0.51422,1.29376 -1.29376,1.29376 h -53.81807 c -0.77954,0 -1.29376,-0.51422 -1.29376,-1.29376 v -2.06208 c 0,0 -1.05792,-2.4957 -3.79183,-2.59219 -2.34796,0.0965 -3.47738,2.59219 -3.47738,2.59219 v 2.06208 c 0,4.68103 3.88194,8.56297 8.56297,8.56297 h 53.81807 c 4.68103,0 8.60846,-3.06318 8.60846,-7.74422 V 60.791896 c 0,-4.667416 -1.63301,-7.131672 -4.5031,-9.720838 0,0 -7.43222,-7.807552 -7.53875,-7.891159 -3.32845,-3.146386 -4.77295,-5.278502 -9.68942,-5.278502 z"
         style="fill:#000000;fill-rule:evenodd;stroke-width:0.89326"
         id="path18" /><path
         d="m 229.7969,47.448123 v 8.815603 c 0,3.738447 3.09825,6.8367 6.8367,6.8367 3.30414,-0.0086 8.49905,-4.5e-4 8.49905,-0.01184 0,0 1.42118,-0.885662 1.42118,-2.705421 -0.0353,-1.731421 -1.40395,-2.92967 -1.40395,-2.92967 h -8.51631 c -0.70773,0 -1.18977,-0.482042 -1.18977,-1.18977 v -8.789611 c 0,0 -0.78769,-1.06266 -2.69578,-1.097995 -1.51941,-0.03534 -2.95112,1.072 -2.95112,1.072 z"
         style="fill:#000000;fill-opacity:1;fill-rule:evenodd;stroke-width:0.89326"
         id="path26" /></g><g
       id="g29"
       style="stroke-width:0.893262"><path
         id="path14"
         style="fill-rule:evenodd;stroke:#000000;stroke-width:1.78652;stroke-linecap:round;stroke-linejoin:round;stroke-dasharray:none;paint-order:stroke fill markers"
         d="m 197.42151,59.069095 c -5.56026,0 -10.58626,0.390522 -14.39776,1.068262 -1.90575,0.33887 -3.49423,0.729169 -4.84504,1.297049 -0.67541,0.283939 -1.30464,0.601485 -1.92484,1.140418 -0.62021,0.538932 -1.32087,1.48093 -1.32087,2.682095 h 2.89009 a 19.597951,3.484805 0 0 1 19.59655,-3.484611 19.597951,3.484805 0 0 1 19.59842,3.484611 h 2.89009 c 0,-1.201165 -0.70067,-2.143163 -1.32086,-2.682095 -0.62021,-0.538933 -1.24757,-0.856479 -1.92297,-1.140418 -1.35081,-0.56788 -2.9393,-0.958179 -4.84503,-1.297049 -3.8115,-0.67774 -8.83748,-1.068262 -14.39778,-1.068262 z m -22.52237,6.25118 c 0,1.201164 0.70065,2.14316 1.32086,2.682094 0.6202,0.538931 1.24944,0.856477 1.92485,1.140418 1.35081,0.567878 2.93929,0.95818 4.84503,1.29705 3.8115,0.677738 8.8375,1.068262 14.39777,1.068262 5.56027,0 10.58627,-0.390524 14.39776,-1.068262 1.90575,-0.33887 3.49424,-0.729172 4.84505,-1.29705 0.67538,-0.283941 1.30274,-0.601487 1.92296,-1.140418 0.6202,-0.538934 1.32086,-1.48093 1.32086,-2.682094 h -2.89009 a 19.597951,3.484805 0 0 1 -19.59843,3.484611 19.597951,3.484805 0 0 1 -19.59653,-3.484611 z m 0.0583,11.749122 c 0,1.201161 0.70066,2.143161 1.32087,2.682093 0.62021,0.538933 1.24944,0.856477 1.92484,1.140418 1.35081,0.567878 2.93929,0.958181 4.84504,1.29705 3.8115,0.677738 8.83751,1.068262 14.39777,1.068262 5.56029,0 10.58627,-0.390524 14.39777,-1.068262 1.90572,-0.338869 3.49422,-0.729172 4.84503,-1.29705 0.67541,-0.283941 1.30276,-0.601485 1.92297,-1.140418 0.6202,-0.538932 1.12894,-1.458052 1.12894,-2.659215 l -2.54388,-0.02288 c -6.1e-4,1.924556 -8.92933,3.484656 -19.75271,3.48461 -10.82266,-1.38e-4 -19.80103,-1.560185 -19.80164,-3.48461 z m -0.0527,11.74912 c 0,1.201164 0.70064,2.143161 1.32086,2.682095 0.6202,0.538931 1.24944,0.856477 1.92484,1.140418 1.35079,0.567878 2.9393,0.958179 4.84504,1.29705 3.8115,0.677737 8.8375,1.068262 14.39777,1.068262 5.56027,0 10.58626,-0.390525 14.39776,-1.068262 1.90575,-0.338871 3.49424,-0.729172 4.84505,-1.29705 0.67538,-0.283941 1.30274,-0.601487 1.92295,-1.140418 0.62021,-0.538934 1.20044,-1.458054 1.20044,-2.659215 l -2.63231,-0.02288 c -6.1e-4,1.924558 -8.91239,3.484657 -19.73578,3.484611 -10.82265,-1.37e-4 -19.79914,-1.560183 -19.79974,-3.484611 z m -0.0339,11.750883 c 0,1.20116 0.70064,2.14316 1.32086,2.68209 0.6202,0.53893 1.24944,0.85648 1.92484,1.14042 1.35081,0.56788 2.93929,0.95817 4.84505,1.29705 3.81148,0.67774 8.83751,1.06826 14.39776,1.06826 5.56027,0 10.58628,-0.39052 14.39776,-1.06826 1.90575,-0.33888 3.49424,-0.72917 4.84504,-1.29705 0.67541,-0.28394 1.30275,-0.60149 1.92296,-1.14042 0.62021,-0.53893 1.32087,-1.39117 1.32087,-2.59234 l -0.0113,-0.0616 -2.74145,-0.0281 c -6e-4,1.92456 -8.91237,3.48466 -19.73577,3.48461 -10.82265,-1.4e-4 -19.81797,-1.56018 -19.81857,-3.48461 z" /><path
         style="fill:none;fill-rule:evenodd;stroke:#000000;stroke-width:0.893261px;stroke-linecap:butt;stroke-linejoin:miter;stroke-opacity:1"
         d="m 216.62703,65.571201 3.95447,0.04511"
         id="path25" /><rect
         style="fill:#000000;fill-rule:evenodd;stroke:none;stroke-width:0.893261px;stroke-linecap:butt;stroke-linejoin:miter;stroke-opacity:1"
         id="rect27"
         width="4.7152872"
         height="38.130962"
         x="173.9127"
         y="63.933331"
         ry="1.8927754"
         rx="2.0494597" /><rect
         style="fill:#000000;fill-rule:evenodd;stroke:none;stroke-width:0.893261px;stroke-linecap:butt;stroke-linejoin:miter;stroke-opacity:1"
         id="rect28"
         width="4.7152872"
         height="38.469265"
         x="216.1339"
         y="63.933331"
         ry="1.9095684"
         rx="2.0494597" /></g></g></g><g
   id="gTwoFiles" />
</svg>
