<?xml version="1.0" encoding="UTF-8" standalone="no"?>
<!-- Created with Inkscape (http://www.inkscape.org/) -->

<svg
   width="100"
   height="100"
   version="1.1"
   viewBox="0 0 100 100"
   xml:space="preserve"
   id="equalizer"
   sodipodi:docname="playlistBooster-equalizer-thumb-speed-20.svg"
   inkscape:version="1.3.2 (091e20e, 2023-11-25, custom)"
   xmlns:inkscape="http://www.inkscape.org/namespaces/inkscape"
   xmlns:sodipodi="http://sodipodi.sourceforge.net/DTD/sodipodi-0.dtd"
   xmlns="http://www.w3.org/2000/svg"
   xmlns:svg="http://www.w3.org/2000/svg"><sodipodi:namedview
   id="namedview1"
   pagecolor="#ffffff"
   bordercolor="#111111"
   borderopacity="1"
   inkscape:showpageshadow="0"
   inkscape:pageopacity="0"
   inkscape:pagecheckerboard="1"
   inkscape:deskcolor="#d1d1d1"
   inkscape:zoom="5.5183246"
   inkscape:cx="34.521348"
   inkscape:cy="86.711101"
   inkscape:current-layer="gNeedle"
   showguides="true"><sodipodi:guide
     position="308.28431,35.556387"
     orientation="0,-1"
     id="guide2"
     inkscape:locked="false" /><sodipodi:guide
     position="208.35156,44.109375"
     orientation="0,-1"
     id="guide13"
     inkscape:locked="false" /><sodipodi:guide
     position="206.83594,44.304688"
     orientation="1,0"
     id="guide14"
     inkscape:locked="false" /><sodipodi:guide
     position="93.691649,10.197438"
     orientation="0,-1"
     id="guide4"
     inkscape:locked="false" /></sodipodi:namedview>
   <defs
   id="defs1">   <filter
   inkscape:collect="always"
   style="color-interpolation-filters:sRGB"
   id="filter15"
   x="-0.0048810388"
   y="-0.0097619439"
   width="1.0097621"
   height="1.0195239"><feGaussianBlur
     inkscape:collect="always"
     stdDeviation="0.30307488"
     id="feGaussianBlur15" /></filter></defs>
<g
   id="gTachoArch"
   transform="matrix(0.63185593,0,0,0.63185593,-82.152953,17.590568)"
   style="stroke-width:1.58264"><g
     id="gTachoBG"
     style="filter:url(#filter15);fill:none"><path
       d="m 279.79492,58.776954 -18.27734,2.244141 a 65.068558,65.068558 0 0 1 1.70703,12.828125 h 18.19141 a 74.510681,74.510681 0 0 0 0,-0.002 74.510681,74.510681 0 0 0 -1.6211,-15.070313 z"
       style="opacity:1;fill:none;fill-opacity:1;fill-rule:evenodd;stroke-width:1.58264;stroke-linecap:round;stroke-linejoin:round;paint-order:stroke fill markers"
       id="path11" /><path
       d="m 261.08398,22.884376 -13.03906,10.941406 a 65.068558,65.068558 0 0 1 12.27735,22.841797 l 18.35156,-2.253906 A 74.510681,74.510681 0 0 0 261.08398,22.884376 Z"
       style="opacity:1;fill:none;fill-opacity:1;fill-rule:evenodd;stroke-width:1.58264;stroke-linecap:round;stroke-linejoin:round;paint-order:stroke fill markers"
       id="path12" /><path
       d="M 228.38867,2.6402354 224.30664,15.993751 A 65.068558,65.068558 0 0 1 245,30.548439 L 257.86328,19.75547 A 74.510681,74.510681 0 0 0 228.38867,2.6402354 Z"
       style="opacity:1;fill:none;fill-opacity:1;fill-rule:evenodd;stroke-width:1.58264;stroke-linecap:round;stroke-linejoin:round;paint-order:stroke fill markers"
       id="path13" /><path
       d="m 220.13281,14.364845 3.9668,-12.9785159 a 74.510681,74.510681 0 0 0 -17.19336,-2.0488282 74.510681,74.510681 0 0 0 -19.57617,2.638672 l 3.10351,9.0097651 a 65.068558,65.068558 0 0 1 7.85157,-0.564453 65.068558,65.068558 0 0 1 21.84765,3.94336 z"
       style="opacity:1;fill:none;fill-opacity:1;fill-rule:evenodd;stroke-width:1.58264;stroke-linecap:round;stroke-linejoin:round;paint-order:stroke fill markers"
       id="path14" /><path
       d="m 185.97656,11.767188 -2.87695,-8.3554682 a 74.510681,74.510681 0 0 0 -50.70508,70.4355472 74.510681,74.510681 0 0 0 0,0.002 h 0.95117 a 65.068558,65.068558 0 0 1 52.63086,-62.082079 z"
       style="opacity:1;fill:none;fill-opacity:1;fill-rule:evenodd;stroke-width:1.58264;stroke-linecap:round;stroke-linejoin:round;paint-order:stroke fill markers"
       id="path15" /></g><path
     d="m 197.88867,12.861716 a 62.22087,61.344296 0 0 0 -62.2207,61.343754 62.22087,61.344296 0 0 1 0,0.002 h 5.51562 a 59.46315,60.183166 0 0 1 0,-0.002 59.46315,60.183166 0 0 1 59.46289,-60.181644 59.46315,60.183166 0 0 1 36.13477,12.392578 62.22087,61.344296 0 0 0 -38.89258,-13.554688 z"
     style="opacity:1;fill:#4d4d4d;fill-rule:evenodd;stroke-width:1.58264;stroke-linecap:round;stroke-linejoin:round;paint-order:stroke fill markers"
     id="tacho_shadow_left" /><path
     d="m 279.79492,58.776954 -18.27734,2.244141 a 65.068558,65.068558 0 0 1 1.70703,12.828125 h 18.19141 a 74.510681,74.510681 0 0 0 0,-0.002 74.510681,74.510681 0 0 0 -1.6211,-15.070313 z"
     style="opacity:1;fill:#ee4622;fill-opacity:1;fill-rule:evenodd;stroke-width:1.58264;stroke-linecap:round;stroke-linejoin:round;paint-order:stroke fill markers"
     id="tacho_5" /><path
     d="m 261.08398,22.884376 -13.03906,10.941406 a 65.068558,65.068558 0 0 1 12.27735,22.841797 l 18.35156,-2.253906 A 74.510681,74.510681 0 0 0 261.08398,22.884376 Z"
     style="opacity:1;fill:#f48420;fill-opacity:1;fill-rule:evenodd;stroke-width:1.58264;stroke-linecap:round;stroke-linejoin:round;paint-order:stroke fill markers"
     id="tacho_4" /><path
     d="M 228.38867,2.6402354 224.30664,15.993751 A 65.068558,65.068558 0 0 1 245,30.548439 L 257.86328,19.75547 A 74.510681,74.510681 0 0 0 228.38867,2.6402354 Z"
     style="opacity:1;fill:#f3c317;fill-opacity:1;fill-rule:evenodd;stroke-width:1.58264;stroke-linecap:round;stroke-linejoin:round;paint-order:stroke fill markers"
     id="tacho_3" /><path
     d="m 220.13281,14.364845 3.9668,-12.9785159 a 74.510681,74.510681 0 0 0 -17.19336,-2.0488282 74.510681,74.510681 0 0 0 -19.57617,2.638672 l 3.10351,9.0097651 a 65.068558,65.068558 0 0 1 7.85157,-0.564453 65.068558,65.068558 0 0 1 21.84765,3.94336 z"
     style="opacity:1;fill:#90c441;fill-opacity:1;fill-rule:evenodd;stroke-width:1.58264;stroke-linecap:round;stroke-linejoin:round;paint-order:stroke fill markers"
     id="tacho_2" /><path
     d="m 185.97656,11.767188 -2.87695,-8.3554682 a 74.510681,74.510681 0 0 0 -50.70508,70.4355472 74.510681,74.510681 0 0 0 0,0.002 h 0.95117 a 65.068558,65.068558 0 0 1 52.63086,-62.082079 z"
     style="opacity:1;fill:#66bb46;fill-opacity:1;fill-rule:evenodd;stroke-width:1.58264;stroke-linecap:round;stroke-linejoin:round;paint-order:stroke fill markers"
     id="tacho_1" /><g
     id="gNeedle"
     style="fill:#fff6d5;stroke-width:1.31305"
     transform="matrix(1.2178165,0,0,1.192951,-44.813676,-3.1168281)"><path
       id="needle_1x"
       d="m 228.42074,-22.139003 -20.8066,68.041646 4.4e-4,0.0044 c -2.19873,-0.175448 -4.39389,0.379888 -6.24468,1.579794 -4.63946,3.012408 -5.95801,9.215706 -2.94492,13.854713 3.0129,4.638226 9.21528,5.955952 13.85366,2.943269 4.63758,-3.012482 5.95569,-9.213694 2.94433,-13.852007 -0.45141,-0.694775 -0.98729,-1.330847 -1.59537,-1.893632 l 0.002,-0.0011 14.94869,-70.638982 c 0.0635,-0.282176 -0.0805,-0.292851 -0.15723,-0.03807 z"
       sodipodi:nodetypes="ccccccccccc"
       inkscape:transform-center-x="-5.8637405"
       inkscape:transform-center-y="-34.102385"
       fill="#fff6d5"
       fill-opacity="0"
       style="stroke:none" /><path
       id="needle_2x"
       d="m 287.09897,45.271022 -70.76246,7.433413 -0.004,0.0021 c -0.69762,-2.092501 -2.06652,-3.896165 -3.8942,-5.130987 -4.58572,-3.0936 -10.81109,-1.883513 -13.904,2.70266 -3.09228,4.585687 -1.88179,10.809886 2.70375,13.90238 4.58506,3.091848 10.80833,1.882165 13.90129,-2.702137 0.46316,-0.686992 0.83928,-1.428808 1.11974,-2.208442 l 0.002,0.0011 70.86445,-13.840511 c 0.28455,-0.0518 0.23812,-0.18851 -0.0264,-0.159608 z"
       sodipodi:nodetypes="ccccccccccc"
       inkscape:transform-center-x="-35.233339"
       inkscape:transform-center-y="-0.31252093"
       fill="#fff6d5"
       fill-opacity="1" /><path
       id="needle_1_5x"
       d="M 267.43771,2.2050609 212.92969,47.9375 l -0.002,0.0039 c -1.74846,-1.344661 -3.89193,-2.074485 -6.09765,-2.076172 -5.53165,-4.11e-4 -10.01604,4.483977 -10.01563,10.015625 6.7e-4,5.530885 4.48474,10.014083 10.01563,10.013672 5.53012,-6.71e-4 10.013,-4.483552 10.01367,-10.013672 -1.8e-4,-0.828541 -0.10318,-1.653858 -0.30664,-2.457031 h 0.002 L 267.54884,2.3226248 c 0.20694,-0.2020675 0.092,-0.2894389 -0.11113,-0.1175639 z"
       sodipodi:nodetypes="ccccccccccc"
       fill="#fff6d5"
       fill-opacity="0" /><path
       id="needle_0_5x"
       d="m 177.11399,-19.41555 24.33159,66.862199 0.003,0.0032 c -1.86157,1.183114 -3.28049,2.947703 -4.03648,5.019824 -1.89232,5.197911 0.78787,10.94561 5.98606,12.837159 5.19756,1.891045 10.94403,-0.789258 12.83532,-5.986736 1.89078,-5.196842 -0.78851,-10.942607 -5.98489,-12.834649 -0.77864,-0.283208 -1.58941,-0.468695 -2.41374,-0.552207 l 6.9e-4,-0.0019 -30.57305,-65.411143 c -0.1191,-0.263571 -0.24052,-0.185446 -0.14848,0.06422 z"
       sodipodi:nodetypes="ccccccccccc"
       inkscape:transform-center-x="9.87644"
       inkscape:transform-center-y="-32.757922"
       fill="#fff6d5"
       fill-opacity="0" /></g></g><text
   xml:space="preserve"
   style="font-style:normal;font-variant:normal;font-weight:normal;font-stretch:normal;font-size:32.2107px;font-family:Raleway;-inkscape-font-specification:'Raleway, @wght=700';font-variant-ligatures:normal;font-variant-caps:normal;font-variant-numeric:normal;font-variant-east-asian:normal;font-variation-settings:'wght' 700;fill:#fff6d5;fill-opacity:1;fill-rule:evenodd;stroke-width:1;stroke-linecap:round;stroke-linejoin:round;paint-order:stroke fill markers"
   x="15.930984"
   y="89.651894"
   id="text3"><tspan
     sodipodi:role="line"
     id="speedOneZero"
     x="15.930984"
     y="89.651894"
     style="stroke-width:1">2.0</tspan></text><path
   d="m 64.730574,78.253608 2.355661,3.512077 0.17132,0.385471 0.214151,-0.385471 2.334246,-3.512077 h 3.019529 l -3.897548,5.589341 3.961794,5.632172 h -3.019529 l -2.419907,-3.490662 -0.192736,-0.364056 -0.17132,0.364056 -2.398492,3.490662 h -3.019529 l 3.961794,-5.567926 -3.897548,-5.653587 z"
   id="speedX"
   style="font-size:21.4151px;font-family:Raleway;-inkscape-font-specification:'Raleway, @wght=700';font-variation-settings:'wght' 700;fill:#fff6d5;fill-rule:evenodd;stroke-linecap:round;stroke-linejoin:round;paint-order:stroke fill markers"
   aria-label="x" /></svg>
