<?xml version="1.0" encoding="UTF-8" standalone="no"?>
<svg
   viewBox=" 0 0  100 100 "
   width="100"
   version="1.1"
   id="playlistBooster-twoFiles"
   heigth="100"
   xml:space="preserve"
   xmlns="http://www.w3.org/2000/svg"
   xmlns:svg="http://www.w3.org/2000/svg"><defs
   id="defs1" />
   <g
   id="gTwoFiles" /><path
   d="M 9.579975,84.09874 H 77.319417 V 40.514444 c 0,-5.600484 -0.316849,-19.429144 -0.316849,-19.429144 0,0 -19.132289,-18.06206 -19.112293,-18.0620701 L 9.5439938,3.0477496 C 9.9780528,28.947674 9.579975,84.09874 9.579975,84.09874 M 52.639155,9.0077246 V 26.33642 H 70.492962 V 77.797396 H 16.406435 V 9.0077246 h 36.23272 M 83.620761,26.33642 V 90.400084 H 23.232885 v 6.768138 h 67.273436 c 0,0 -0.0591,-47.930221 -0.0591,-70.831802 h -6.826456 m -60.387876,8.926904 v 5.776232 H 63.666506 V 35.263324 H 23.232885 m 0,14.178024 v 6.301344 H 63.666506 V 49.441348 H 23.232885 m 0,14.703136 v 5.776232 h 40.433621 v -5.776232 z"
   id="twoFiles"
   fill="#828292"
   fill-opacity="1"
   style="fill:#000000" />
</svg>
